<?xml version="1.0" encoding="UTF-8" standalone="no"?>
<!-- Created with Inkscape (http://www.inkscape.org/) -->

<svg
   width="20.774611mm"
   height="16.221447mm"
   viewBox="0 0 20.774611 16.221447"
   version="1.1"
   id="svg1"
   inkscape:version="1.3.2 (091e20e, 2023-11-25, custom)"
   sodipodi:docname="cyclic_ramp_s.svg"
   xmlns:inkscape="http://www.inkscape.org/namespaces/inkscape"
   xmlns:sodipodi="http://sodipodi.sourceforge.net/DTD/sodipodi-0.dtd"
   xmlns="http://www.w3.org/2000/svg"
   xmlns:svg="http://www.w3.org/2000/svg">
  <sodipodi:namedview
     id="namedview1"
     pagecolor="#ffffff"
     bordercolor="#000000"
     borderopacity="0.25"
     inkscape:showpageshadow="2"
     inkscape:pageopacity="0.0"
     inkscape:pagecheckerboard="0"
     inkscape:deskcolor="#d1d1d1"
     inkscape:document-units="mm"
     showborder="true"
     inkscape:zoom="1.4022026"
     inkscape:cx="30.309458"
     inkscape:cy="136.57085"
     inkscape:window-width="1920"
     inkscape:window-height="1001"
     inkscape:window-x="-9"
     inkscape:window-y="-9"
     inkscape:window-maximized="1"
     inkscape:current-layer="layer1" />
  <defs
     id="defs1">
    <filter
       inkscape:collect="always"
       style="color-interpolation-filters:sRGB"
       id="filter48"
       x="-0.038818014"
       y="-0.050821234"
       width="1.077636"
       height="1.1016425">
      <feGaussianBlur
         inkscape:collect="always"
         stdDeviation="5.6657457"
         id="feGaussianBlur48" />
    </filter>
    <clipPath
       id="p9b991f9323-9">
      <rect
         x="57.599998"
         y="41.472"
         width="357.12"
         height="266.112"
         id="rect37-2" />
    </clipPath>
    <clipPath
       id="p9b991f9323-9-5">
      <rect
         x="57.599998"
         y="41.472"
         width="357.12"
         height="266.112"
         id="rect37-2-0" />
    </clipPath>
    <filter
       inkscape:collect="always"
       style="color-interpolation-filters:sRGB"
       id="filter49"
       x="-0.020343401"
       y="-0.027300664"
       width="1.0406868"
       height="1.0546013">
      <feGaussianBlur
         inkscape:collect="always"
         stdDeviation="1.4164364"
         id="feGaussianBlur49" />
    </filter>
  </defs>
  <g
     inkscape:label="Calque 1"
     inkscape:groupmode="layer"
     id="layer1"
     transform="translate(-92.339583,-89.958333)">
    <g
       id="group_rampsine_blur"
       transform="matrix(0.35277777,0,0,0.35277777,95.737052,103.60912)"
       style="stroke-linecap:butt;stroke-linejoin:round">
      <path
         style="color:#000000;fill:#5ddfff;stroke-linecap:round;stroke-linejoin:round;-inkscape-stroke:none;filter:url(#filter48)"
         d="m 402.57031,41.416016 a 12.8205,12.8205 0 0 0 -16.23633,8.068359 l -2.91211,8.669922 -5.48437,16.027344 -4.1543,11.607421 -3.48047,9.181641 -3.1289,7.712887 -2.77344,6.33399 -2.41211,5.07031 -2.36523,4.53125 -1.98047,3.43359 -1.91406,2.97266 -1.51368,2.08789 -1.40625,1.70703 -1.24218,1.30664 -1.08204,0.95313 -0.6289,0.45703 -0.4707,0.27734 -0.26954,0.11914 -0.0234,0.008 -0.45313,-0.16407 -0.66992,-0.33593 -0.89648,-0.57422 -1.4004,-1.08985 -1.57421,-1.44336 -2.04102,-2.14062 -2.48437,-2.93359 -2.85547,-3.71875 -12.48047,-18.17188 a 12.821782,12.821782 0 0 0 -0.0566,-0.082 l -4.22461,-6.050782 a 12.821782,12.821782 0 0 0 -0.23828,-0.332031 l -3.25,-4.351563 a 12.821782,12.821782 0 0 0 -0.33008,-0.421875 l -2.92383,-3.59375 A 12.821782,12.821782 0 0 0 312.7793,86.03125 l -2.59961,-2.876953 a 12.821782,12.821782 0 0 0 -0.53711,-0.556641 l -2.27539,-2.230469 a 12.821782,12.821782 0 0 0 -0.67774,-0.61914 l -2.27539,-1.931641 a 12.821782,12.821782 0 0 0 -0.83594,-0.65039 l -1.94921,-1.396485 A 12.821782,12.821782 0 0 0 300.63281,75.125 l -1.94922,-1.138672 a 12.821782,12.821782 0 0 0 -1.25586,-0.642578 l -1.95117,-0.867188 a 12.821782,12.821782 0 0 0 -1.40039,-0.527343 l -1.625,-0.50586 a 12.821782,12.821782 0 0 0 -1.47461,-0.363281 l -1.625,-0.300781 a 12.821782,12.821782 0 0 0 -1.62109,-0.195313 l -1.625,-0.08984 a 12.821782,12.821782 0 0 0 -1.69922,0.01953 l -1.625,0.125 a 12.821782,12.821782 0 0 0 -1.67773,0.242187 l -1.625,0.345703 a 12.821782,12.821782 0 0 0 -1.57032,0.439454 l -1.625,0.568359 a 12.821782,12.821782 0 0 0 -1.39648,0.583984 l -1.625,0.794922 a 12.821782,12.821782 0 0 0 -1.19531,0.666016 l -1.625,1.021484 a 12.821782,12.821782 0 0 0 -1.08008,0.761719 l -1.95117,1.527344 a 12.821782,12.821782 0 0 0 -0.93164,0.80664 l -1.94922,1.855469 a 12.821782,12.821782 0 0 0 -0.72071,0.744141 l -1.94922,2.183593 a 12.821782,12.821782 0 0 0 -0.5957,0.716797 l -2.27539,2.953125 a 12.821782,12.821782 0 0 0 -0.48047,0.666016 l -2.27344,3.382812 a 12.821782,12.821782 0 0 0 -0.36132,0.566407 l -2.27539,3.796875 a 12.821782,12.821782 0 0 0 -0.28907,0.507812 l -2.59961,4.826167 a 12.821782,12.821782 0 0 0 -0.23046,0.45118 l -2.59961,5.3164 a 12.821782,12.821782 0 0 0 -0.18164,0.38867 l -2.92579,6.52735 a 12.821782,12.821782 0 0 0 -0.14843,0.3457 l -3.25,7.86523 a 12.821782,12.821782 0 0 0 -0.11719,0.29297 l -3.57422,9.29297 a 12.821782,12.821782 0 0 0 -0.0937,0.25195 l -4.55078,12.60547 a 12.821782,12.821782 0 0 0 -0.0801,0.23047 l -11.04687,32.52539 -5.82032,17.07227 -4.15625,11.68555 -3.48632,9.27148 -3.13477,7.81055 -2.78125,6.43554 -2.42188,5.17188 -2.37695,4.64062 -1.99805,3.53711 -1.91992,3.05664 -1.82226,2.5625 -1.39844,1.72071 -1.25977,1.33789 -1.09765,0.98437 -0.64844,0.48242 -0.49414,0.29493 -0.28711,0.13476 -0.0371,0.0117 -0.41601,-0.14453 -0.64454,-0.31836 -0.87695,-0.55078 -1.38281,-1.06055 -1.5586,-1.41406 -2.02734,-2.11133 -2.47461,-2.9043 -2.8457,-3.6875 -12.79883,-18.62304 a 12.821782,12.821782 0 0 0 -0.0625,-0.0879 l -4.22461,-6.03711 a 12.821782,12.821782 0 0 0 -0.24414,-0.33985 l -3.25,-4.33593 a 12.821782,12.821782 0 0 0 -0.33594,-0.42969 l -2.92578,-3.57422 a 12.821782,12.821782 0 0 0 -0.44336,-0.51367 l -2.59961,-2.85547 a 12.821782,12.821782 0 0 0 -0.54687,-0.56445 l -2.27539,-2.21094 a 12.821782,12.821782 0 0 0 -0.69336,-0.625 l -2.27539,-1.9082 a 12.821782,12.821782 0 0 0 -0.85157,-0.65625 l -1.95117,-1.375 a 12.821782,12.821782 0 0 0 -1.01562,-0.64649 l -1.94922,-1.11719 a 12.821782,12.821782 0 0 0 -1.2793,-0.64062 l -1.95117,-0.8418 a 12.821782,12.821782 0 0 0 -1.42187,-0.51953 l -1.625,-0.48437 a 12.821782,12.821782 0 0 0 -1.49024,-0.34961 l -1.625,-0.2793 a 12.821782,12.821782 0 0 0 -1.63476,-0.17578 l -1.625,-0.0684 a 12.821782,12.821782 0 0 0 -1.70118,0.041 l -1.62304,0.14649 a 12.821782,12.821782 0 0 0 -1.67383,0.26367 l -1.62305,0.36914 a 12.821782,12.821782 0 0 0 -1.55664,0.45703 l -1.625,0.58985 a 12.821782,12.821782 0 0 0 -1.37695,0.5957 l -1.625,0.81641 a 12.821782,12.821782 0 0 0 -1.17383,0.67187 l -1.625,1.04492 a 12.821782,12.821782 0 0 0 -1.05859,0.75977 l -1.95118,1.55664 a 12.821782,12.821782 0 0 0 -0.9121,0.80078 l -1.94922,1.88477 a 12.821782,12.821782 0 0 0 -0.70508,0.73632 l -1.949221,2.21094 a 12.821782,12.821782 0 0 0 -0.583984,0.70899 l -2.273438,2.98437 a 12.821782,12.821782 0 0 0 -0.470703,0.66016 l -2.27539,3.41015 a 12.821782,12.821782 0 0 0 -0.353516,0.56055 l -2.275391,3.82617 a 12.821782,12.821782 0 0 0 -0.283203,0.50195 l -2.599609,4.85938 a 12.821782,12.821782 0 0 0 -0.226563,0.44336 l -2.599609,5.34766 A 12.821782,12.821782 0 0 0 85.197306,228.08 l -2.923829,6.55859 a 12.821782,12.821782 0 0 0 -0.146484,0.3418 l -3.25,7.89453 a 12.821782,12.821782 0 0 0 -0.119141,0.30078 l -3.90039,10.19727 a 12.821782,12.821782 0 0 0 -0.09375,0.25195 l -4.548828,12.68555 a 12.821782,12.821782 0 0 0 -0.07031,0.20117 l -8.449219,24.84961 a 12.8205,12.8205 0 0 0 8.009766,16.26562 12.8205,12.8205 0 0 0 16.265625,-8.01172 l 8.416016,-24.75 4.46875,-12.45898 3.792968,-9.91992 3.11719,-7.57227 2.76367,-6.19531 2.39843,-4.93359 2.34571,-4.38282 1.95703,-3.29297 1.86719,-2.79882 1.75,-2.29493 1.30859,-1.48242 1.14453,-1.10742 0.96485,-0.76953 0.50585,-0.32617 0.34961,-0.17578 0.11133,-0.041 0.15235,0.0469 0.5957,0.25781 0.80469,0.46094 1.01757,0.71679 1.50391,1.25977 1.6582,1.61133 2.10547,2.3125 2.53711,3.10156 2.96094,3.95117 4.07422,5.82227 12.96875,18.86914 a 12.821782,12.821782 0 0 0 0.41406,0.56836 l 3.25,4.21289 a 12.821782,12.821782 0 0 0 0.39258,0.48242 l 2.92383,3.43359 a 12.821782,12.821782 0 0 0 0.51367,0.56836 l 2.60156,2.70508 a 12.821782,12.821782 0 0 0 0.63281,0.61719 l 2.27539,2.0625 a 12.821782,12.821782 0 0 0 0.80274,0.66992 l 2.27539,1.74609 a 12.821782,12.821782 0 0 0 0.98437,0.68555 l 1.95118,1.22656 a 12.821782,12.821782 0 0 0 1.16406,0.65039 l 1.95117,0.95899 a 12.821782,12.821782 0 0 0 1.44531,0.60351 l 1.94922,0.67969 a 12.821782,12.821782 0 0 0 1.57031,0.43555 l 1.625,0.34179 a 12.821782,12.821782 0 0 0 1.59766,0.23243 l 1.625,0.13281 a 12.821782,12.821782 0 0 0 1.68945,0.0273 l 1.625,-0.082 a 12.821782,12.821782 0 0 0 1.69141,-0.19922 l 1.625,-0.30078 a 12.821782,12.821782 0 0 0 1.59766,-0.4043 l 1.625,-0.52343 a 12.821782,12.821782 0 0 0 1.43554,-0.56055 l 1.625,-0.75 a 12.821782,12.821782 0 0 0 1.23438,-0.65234 l 1.625,-0.97852 a 12.821782,12.821782 0 0 0 1.03125,-0.68945 l 1.625,-1.20508 a 12.821782,12.821782 0 0 0 0.91992,-0.75 l 1.94922,-1.74805 a 12.821782,12.821782 0 0 0 0.78515,-0.76562 l 1.95118,-2.07422 a 12.821782,12.821782 0 0 0 0.60547,-0.69336 l 1.94921,-2.39648 a 12.821782,12.821782 0 0 0 0.50196,-0.66016 l 2.27343,-3.19922 a 12.821782,12.821782 0 0 0 0.40821,-0.60742 l 2.27539,-3.6211 a 12.821782,12.821782 0 0 0 0.30664,-0.51562 l 2.27344,-4.02539 a 12.821782,12.821782 0 0 0 0.25,-0.46289 l 2.59961,-5.07422 a 12.821782,12.821782 0 0 0 0.19921,-0.4082 l 2.59961,-5.55078 a 12.821782,12.821782 0 0 0 0.15821,-0.35157 l 2.92578,-6.76758 a 12.821782,12.821782 0 0 0 0.1289,-0.3125 l 3.25,-8.09765 a 12.821782,12.821782 0 0 0 0.10157,-0.26367 l 3.57617,-9.50782 a 12.821782,12.821782 0 0 0 0.0781,-0.21484 l 4.22461,-11.87305 a 12.821782,12.821782 0 0 0 0.0547,-0.16211 l 5.84961,-17.16015 a 12.821782,12.821782 0 0 0 0.006,-0.0137 l 11.00977,-32.41797 4.46289,-12.36524 3.4707,-9.02148 3.11719,-7.54297 2.75976,-6.16016 2.39453,-4.89843 2.3418,-4.34571 1.95117,-3.25781 1.85742,-2.75976 1.73829,-2.257816 1.29492,-1.449218 1.1289,-1.074219 0.94336,-0.740234 0.48438,-0.304688 0.33008,-0.160156 0.0879,-0.03125 h 0.002 l 0.18359,0.05664 0.61914,0.275391 0.82618,0.482422 1.03515,0.740234 1.52149,1.291016 1.66992,1.636718 2.11719,2.3418 2.54492,3.1289 2.96679,3.97461 4.08008,5.84375 12.64649,18.41406 a 12.821782,12.821782 0 0 0 0.40039,0.55078 l 3.25,4.23047 a 12.821782,12.821782 0 0 0 0.38476,0.47657 l 2.92383,3.45312 a 12.821782,12.821782 0 0 0 0.50391,0.56055 l 2.59961,2.72851 a 12.821782,12.821782 0 0 0 0.62109,0.60743 l 2.27344,2.08398 a 12.821782,12.821782 0 0 0 0.78711,0.66406 l 2.27539,1.77149 a 12.821782,12.821782 0 0 0 0.96484,0.68164 l 1.94922,1.24804 a 12.821782,12.821782 0 0 0 1.14453,0.65039 l 1.94922,0.98243 a 12.821782,12.821782 0 0 0 1.42188,0.60937 l 1.94921,0.70313 a 12.821782,12.821782 0 0 0 1.55079,0.44922 l 1.625,0.36328 a 12.821782,12.821782 0 0 0 1.58398,0.25195 l 1.625,0.15234 a 12.821782,12.821782 0 0 0 1.68359,0.0488 l 1.625,-0.0605 a 12.821782,12.821782 0 0 0 1.69532,-0.17578 l 1.625,-0.27929 a 12.821782,12.821782 0 0 0 1.61132,-0.38477 l 1.625,-0.50195 a 12.821782,12.821782 0 0 0 1.45313,-0.54688 l 1.625,-0.72656 a 12.821782,12.821782 0 0 0 1.25586,-0.64844 l 1.625,-0.95312 a 12.821782,12.821782 0 0 0 1.05273,-0.68946 l 1.62305,-1.18164 a 12.821782,12.821782 0 0 0 0.93945,-0.75195 l 1.94922,-1.7207 a 12.821782,12.821782 0 0 0 0.80274,-0.77149 l 1.94922,-2.04882 a 12.821782,12.821782 0 0 0 0.61914,-0.69727 l 1.95117,-2.37109 a 12.821782,12.821782 0 0 0 0.47656,-0.61914 l 1.94922,-2.68946 a 12.821782,12.821782 0 0 0 0.39844,-0.58203 l 2.27539,-3.53125 a 12.821782,12.821782 0 0 0 0.32617,-0.5332 l 2.27344,-3.94141 a 12.821782,12.821782 0 0 0 0.26367,-0.47851 l 2.59961,-4.98438 a 12.821782,12.821782 0 0 0 0.21094,-0.42187 l 2.5996,-5.46485 a 12.821782,12.821782 0 0 0 0.16602,-0.36523 l 2.92578,-6.67774 a 12.821782,12.821782 0 0 0 0.13672,-0.32421 l 3.25,-8.01368 a 12.821782,12.821782 0 0 0 0.10742,-0.27343 l 3.57422,-9.42969 a 12.821782,12.821782 0 0 0 0.084,-0.224609 l 4.2246,-11.804688 a 12.821782,12.821782 0 0 0 0.0586,-0.169922 l 5.52539,-16.146484 a 12.821782,12.821782 0 0 0 0.0215,-0.06641 l 2.92578,-8.703125 a 12.8205,12.8205 0 0 0 -8.07031,-16.236328 z"
         id="rampsine_blur"
         transform="matrix(0.156,0,0,0.156,-17.027337,-42.930608)" />
      <path
         d="m 73.832727,295.488 8.449468,-24.84993 4.549713,-12.68529 3.899755,-10.1977 3.249795,-7.89412 2.924816,-6.55826 2.599836,-5.34756 2.59984,-4.85783 2.27485,-3.8255 2.27486,-3.41133 2.27486,-2.98386 1.94987,-2.20971 1.94988,-1.88396 1.94988,-1.55575 1.6249,-1.04526 1.62489,-0.81755 1.6249,-0.5914 1.6249,-0.3677 1.6249,-0.14732 1.62489,0.0688 1.6249,0.27994 1.6249,0.48515 1.94988,0.84356 1.94987,1.11628 1.94988,1.37438 2.27486,1.9081 2.27485,2.20951 2.59984,2.85532 2.92481,3.57499 3.2498,4.336 4.22473,6.0382 12.99918,18.91271 3.2498,4.21265 2.92482,3.43311 2.59983,2.70618 2.27486,2.06244 2.27486,1.74677 1.94987,1.22568 1.94988,0.95887 1.94988,0.67833 1.62489,0.34216 1.6249,0.13274 1.6249,-0.082 1.6249,-0.3012 1.62489,-0.52399 1.6249,-0.7495 1.6249,-0.97684 1.6249,-1.2051 1.94987,-1.74739 1.94988,-2.0744 1.94988,-2.39787 2.27486,-3.19905 2.27485,-3.62028 2.27486,-4.02659 2.59984,-5.07602 2.59983,-5.55126 2.92482,-6.76751 3.24979,-8.09879 3.57478,-9.50889 4.22473,-11.87371 5.84963,-17.16052 11.04931,-32.53274 4.54971,-12.60634 3.57477,-9.29345 3.2498,-7.86401 2.92482,-6.52766 2.59983,-5.31792 2.59984,-4.82618 2.27485,-3.796422 2.27486,-3.3812 2.27486,-2.952911 1.94988,-2.182704 1.94987,-1.856674 1.94988,-1.528343 1.6249,-1.022446 1.62489,-0.794853 1.6249,-0.568905 1.6249,-0.345496 1.6249,-0.125507 1.6249,0.09019 1.62489,0.30074 1.6249,0.505315 1.94988,0.866804 1.94987,1.13837 1.94988,1.395181 2.27486,1.93058 2.27486,2.229909 2.59983,2.875879 2.92482,3.594358 3.24979,4.352555 4.22474,6.05152 12.6742,18.45448 3.24979,4.23106 2.92482,3.45406 2.59983,2.72803 2.27486,2.08391 2.27486,1.77023 1.94988,1.24725 1.94987,0.98165 1.94988,0.70219 1.6249,0.36278 1.62489,0.15393 1.6249,-0.0603 1.6249,-0.2791 1.6249,-0.50158 1.6249,-0.72685 1.62489,-0.95405 1.6249,-1.18226 1.94988,-1.72004 1.94987,-2.04726 1.94988,-2.37109 1.94988,-2.68969 2.27486,-3.53117 2.27485,-3.94093 2.59984,-4.98323 2.59984,-5.4648 2.92481,-6.67889 3.2498,-8.012405 3.57477,-9.430102 4.22473,-11.804493 5.52466,-16.146049 2.92481,-8.70388 v 0"
         clip-path="url(#p9b991f9323-9)"
         style="mix-blend-mode:normal;fill:none;stroke:#5ddfff;stroke-width:12.8205;stroke-linecap:round;stroke-linejoin:round;stroke-dasharray:none;stroke-dashoffset:0;stroke-opacity:1;paint-order:normal"
         id="rampsine"
         transform="matrix(0.156,0,0,0.156,-17.027335,-42.930605)" />
      <path
         d="m 73.832727,295.488 8.449468,-24.84993 4.549713,-12.68529 3.899755,-10.1977 3.249795,-7.89412 2.924816,-6.55826 2.599836,-5.34756 2.59984,-4.85783 2.27485,-3.8255 2.27486,-3.41133 2.27486,-2.98386 1.94987,-2.20971 1.94988,-1.88396 1.94988,-1.55575 1.6249,-1.04526 1.62489,-0.81755 1.6249,-0.5914 1.6249,-0.3677 1.6249,-0.14732 1.62489,0.0688 1.6249,0.27994 1.6249,0.48515 1.94988,0.84356 1.94987,1.11628 1.94988,1.37438 2.27486,1.9081 2.27485,2.20951 2.59984,2.85532 2.92481,3.57499 3.2498,4.336 4.22473,6.0382 12.99918,18.91271 3.2498,4.21265 2.92482,3.43311 2.59983,2.70618 2.27486,2.06244 2.27486,1.74677 1.94987,1.22568 1.94988,0.95887 1.94988,0.67833 1.62489,0.34216 1.6249,0.13274 1.6249,-0.082 1.6249,-0.3012 1.62489,-0.52399 1.6249,-0.7495 1.6249,-0.97684 1.6249,-1.2051 1.94987,-1.74739 1.94988,-2.0744 1.94988,-2.39787 2.27486,-3.19905 2.27485,-3.62028 2.27486,-4.02659 2.59984,-5.07602 2.59983,-5.55126 2.92482,-6.76751 3.24979,-8.09879 3.57478,-9.50889 4.22473,-11.87371 5.84963,-17.16052 11.04931,-32.53274 4.54971,-12.60634 3.57477,-9.29345 3.2498,-7.86401 2.92482,-6.52766 2.59983,-5.31792 2.59984,-4.82618 2.27485,-3.796422 2.27486,-3.3812 2.27486,-2.952911 1.94988,-2.182704 1.94987,-1.856674 1.94988,-1.528343 1.6249,-1.022446 1.62489,-0.794853 1.6249,-0.568905 1.6249,-0.345496 1.6249,-0.125507 1.6249,0.09019 1.62489,0.30074 1.6249,0.505315 1.94988,0.866804 1.94987,1.13837 1.94988,1.395181 2.27486,1.93058 2.27486,2.229909 2.59983,2.875879 2.92482,3.594358 3.24979,4.352555 4.22474,6.05152 12.6742,18.45448 3.24979,4.23106 2.92482,3.45406 2.59983,2.72803 2.27486,2.08391 2.27486,1.77023 1.94988,1.24725 1.94987,0.98165 1.94988,0.70219 1.6249,0.36278 1.62489,0.15393 1.6249,-0.0603 1.6249,-0.2791 1.6249,-0.50158 1.6249,-0.72685 1.62489,-0.95405 1.6249,-1.18226 1.94988,-1.72004 1.94987,-2.04726 1.94988,-2.37109 1.94988,-2.68969 2.27486,-3.53117 2.27485,-3.94093 2.59984,-4.98323 2.59984,-5.4648 2.92481,-6.67889 3.2498,-8.012405 3.57477,-9.430102 4.22473,-11.804493 5.52466,-16.146049 2.92481,-8.70388 v 0"
         clip-path="url(#p9b991f9323-9-5)"
         style="opacity:1;mix-blend-mode:normal;fill:none;stroke:#ffffff;stroke-width:6.41026;stroke-linecap:round;stroke-linejoin:round;stroke-dasharray:none;stroke-dashoffset:0;stroke-opacity:0.981132;paint-order:normal;filter:url(#filter49)"
         id="rampsine_white"
         transform="matrix(0.156,0,0,0.156,-17.027335,-42.930605)" />
    </g>
  </g>
</svg>
