<?xml version="1.0" encoding="UTF-8" standalone="no"?>
<!-- Created with Inkscape (http://www.inkscape.org/) -->

<svg
   width="18.583502mm"
   height="11.782341mm"
   viewBox="0 0 18.583502 11.78234"
   version="1.1"
   id="svg1"
   inkscape:version="1.3.2 (091e20e, 2023-11-25, custom)"
   sodipodi:docname="cyclic.svg"
   xmlns:inkscape="http://www.inkscape.org/namespaces/inkscape"
   xmlns:sodipodi="http://sodipodi.sourceforge.net/DTD/sodipodi-0.dtd"
   xmlns="http://www.w3.org/2000/svg"
   xmlns:svg="http://www.w3.org/2000/svg">
  <sodipodi:namedview
     id="namedview1"
     pagecolor="#ffffff"
     bordercolor="#000000"
     borderopacity="0.25"
     inkscape:showpageshadow="2"
     inkscape:pageopacity="0.0"
     inkscape:pagecheckerboard="0"
     inkscape:deskcolor="#d1d1d1"
     inkscape:document-units="mm"
     inkscape:zoom="2.8044052"
     inkscape:cx="0.53487279"
     inkscape:cy="58.301134"
     inkscape:window-width="1920"
     inkscape:window-height="1001"
     inkscape:window-x="-9"
     inkscape:window-y="-9"
     inkscape:window-maximized="1"
     inkscape:current-layer="layer1" />
  <defs
     id="defs1">
    <clipPath
       id="p9b991f9323-9-9">
      <rect
         x="57.599998"
         y="41.472"
         width="357.12"
         height="266.112"
         id="rect37-2-8" />
    </clipPath>
    <clipPath
       id="p46a843d1e2-1">
      <rect
         x="57.599998"
         y="41.472"
         width="357.12"
         height="266.112"
         id="rect70-4" />
    </clipPath>
    <clipPath
       id="p46a843d1e2-7">
      <rect
         x="57.599998"
         y="41.472"
         width="357.12"
         height="266.112"
         id="rect70-5" />
    </clipPath>
    <clipPath
       id="p46a843d1e2">
      <rect
         x="57.599998"
         y="41.472"
         width="357.12"
         height="266.112"
         id="rect70" />
    </clipPath>
  </defs>
  <g
     inkscape:label="Calque 1"
     inkscape:groupmode="layer"
     id="layer1"
     transform="translate(-119.0625,-126.47085)">
    <g
       id="group_sine"
       transform="matrix(0.35277777,0,0,0.35277777,99.128556,148.90779)"
       style="stroke-linecap:butt;stroke-linejoin:round">
      <path
         d="m 73.832727,174.528 7.474529,-34.50952 4.224734,-18.41333 3.249795,-13.2277 2.924816,-11.016813 2.599836,-8.967426 2.274857,-7.134463 2.274857,-6.411788 1.949879,-4.882811 1.94988,-4.287468 1.62489,-3.100398 1.6249,-2.657692 1.6249,-2.204474 1.29992,-1.431345 1.29991,-1.132049 1.29992,-0.829887 1.29992,-0.525625 0.97494,-0.193718 0.97494,-0.02153 0.97494,0.150687 1.29991,0.468405 1.29992,0.772976 1.29992,1.075588 1.29992,1.37548 1.29992,1.671889 1.62489,2.50017 1.6249,2.946757 1.6249,3.381691 1.94988,4.613195 1.94987,5.19389 2.27486,6.753843 2.27486,7.451524 2.59983,9.296032 2.92482,11.33952 3.24979,13.52314 3.89976,17.21833 5.52465,25.51122 8.77445,40.57762 3.89975,17.02045 3.2498,13.29785 2.92481,11.09294 2.59984,9.04461 2.27486,7.20871 2.27485,6.4917 1.94988,4.95534 1.94988,4.36329 1.62489,3.16579 1.6249,2.72481 1.6249,2.27306 1.29992,1.48708 1.29992,1.18841 1.29991,0.88672 1.29992,0.5828 1.29992,0.2774 0.97494,0.007 0.97494,-0.16504 1.29991,-0.48748 1.29992,-0.79195 1.29992,-1.09442 1.29992,-1.39412 1.29992,-1.69028 1.62489,-2.52275 1.6249,-2.96879 1.6249,-3.4031 1.94988,-4.63794 1.94987,-5.21747 2.27486,-6.77969 2.27486,-7.47541 2.59983,-9.32067 2.92482,-11.36357 3.24979,-13.54493 3.89976,-17.23718 5.52465,-25.52356 8.77445,-40.5617 3.89975,-16.99972 3.2498,-13.27461 2.92481,-11.067668 2.59984,-9.01897 2.27486,-7.184031 2.27485,-6.465124 1.94988,-4.931213 1.94988,-4.33806 1.6249,-3.144024 1.62489,-2.702464 1.6249,-2.250218 1.29992,-1.468518 1.29992,-1.169632 1.29991,-0.867789 1.29992,-0.563746 1.29992,-0.258279 0.97494,0.0072 0.97494,0.179376 1.29992,0.506557 1.29992,0.810924 1.29991,1.11324 1.29992,1.412737 1.29992,1.708658 1.6249,2.545303 1.62489,2.990804 1.6249,3.424476 1.94988,4.662637 1.94988,5.24099 2.27485,6.80548 2.27486,7.49921 2.59984,9.345224 2.92481,11.3875 3.2498,13.56659 3.89975,17.25587 5.84963,27.05627 8.44947,39.02473 3.89975,16.97884 3.2498,13.25122 2.92481,11.0423 2.59984,8.99324 2.27486,7.15928 2.27485,6.43849 1.94988,4.90703 1.94988,4.31279 1.6249,3.12223 1.62489,2.68009 1.6249,2.22736 1.29992,1.44993 1.29992,1.15085 1.29992,0.84884 1.29991,0.54469 1.29992,0.23916 0.97494,-0.0215 0.97494,-0.19372 1.29992,-0.52563 1.29992,-0.82988 1.29991,-1.13205 1.29992,-1.43135 1.29992,-1.72701 1.6249,-2.56784 1.6249,-3.01278 1.62489,-3.44582 1.94988,-4.68729 1.94988,-5.26446 2.27485,-6.8312 2.27486,-7.52294 2.59984,-9.36968 2.92481,-11.41132 3.2498,-13.58812 3.89975,-17.27438 5.84963,-27.06826 0.64996,-3.04278 v 0"
         clip-path="url(#p46a843d1e2)"
         style="fill:none;stroke:#5ddfff;stroke-width:14.0384;stroke-linecap:round;stroke-linejoin:round;stroke-dasharray:none;stroke-opacity:1"
         id="path66"
         transform="matrix(0.15553215,0,0,0.1304974,46.11402,-69.676829)" />
    </g>
  </g>
</svg>
