<?xml version="1.0" encoding="UTF-8" standalone="no"?>
<!-- Created with Inkscape (http://www.inkscape.org/) -->

<svg
   width="21.019249mm"
   height="13.826052mm"
   viewBox="0 0 21.019249 13.826051"
   version="1.1"
   id="svg1"
   inkscape:version="1.3.2 (091e20e, 2023-11-25, custom)"
   sodipodi:docname="cyclic_s.svg"
   xmlns:inkscape="http://www.inkscape.org/namespaces/inkscape"
   xmlns:sodipodi="http://sodipodi.sourceforge.net/DTD/sodipodi-0.dtd"
   xmlns="http://www.w3.org/2000/svg"
   xmlns:svg="http://www.w3.org/2000/svg">
  <sodipodi:namedview
     id="namedview1"
     pagecolor="#ffffff"
     bordercolor="#000000"
     borderopacity="0.25"
     inkscape:showpageshadow="2"
     inkscape:pageopacity="0.0"
     inkscape:pagecheckerboard="0"
     inkscape:deskcolor="#d1d1d1"
     inkscape:document-units="mm"
     inkscape:zoom="2.8044052"
     inkscape:cx="60.440625"
     inkscape:cy="67.21568"
     inkscape:window-width="1920"
     inkscape:window-height="1001"
     inkscape:window-x="-9"
     inkscape:window-y="-9"
     inkscape:window-maximized="1"
     inkscape:current-layer="layer1" />
  <defs
     id="defs1">
    <clipPath
       id="p9b991f9323-9-9">
      <rect
         x="57.599998"
         y="41.472"
         width="357.12"
         height="266.112"
         id="rect37-2-8" />
    </clipPath>
    <filter
       inkscape:collect="always"
       style="color-interpolation-filters:sRGB"
       id="filter1"
       x="-0.043027077"
       y="-0.056216658"
       width="1.0860542"
       height="1.1124333">
      <feGaussianBlur
         inkscape:collect="always"
         stdDeviation="6.3237527"
         id="feGaussianBlur1" />
    </filter>
    <clipPath
       id="p46a843d1e2-1">
      <rect
         x="57.599998"
         y="41.472"
         width="357.12"
         height="266.112"
         id="rect70-4" />
    </clipPath>
    <clipPath
       id="p46a843d1e2-7">
      <rect
         x="57.599998"
         y="41.472"
         width="357.12"
         height="266.112"
         id="rect70-5" />
    </clipPath>
    <filter
       inkscape:collect="always"
       style="color-interpolation-filters:sRGB"
       id="filter50"
       x="-0.021455534"
       y="-0.028796005"
       width="1.0429111"
       height="1.057592">
      <feGaussianBlur
         inkscape:collect="always"
         stdDeviation="1.4400111"
         id="feGaussianBlur50" />
    </filter>
  </defs>
  <g
     inkscape:label="Calque 1"
     inkscape:groupmode="layer"
     id="layer1"
     transform="translate(-103.1875,-124.0896)">
    <g
       id="group_sine_blur"
       transform="matrix(0.35277777,0,0,0.35277777,72.155756,123.66931)"
       style="stroke-linecap:butt;stroke-linejoin:round">
      <path
         style="color:#000000;mix-blend-mode:normal;fill:#5ddfff;stroke-width:28.0769;stroke-linecap:round;stroke-linejoin:round;stroke-dasharray:none;filter:url(#filter1)"
         d="m 114.4707,39.544922 -0.97461,0.02148 a 14.039854,14.039854 0 0 0 -2.42773,0.265625 l -0.97461,0.19336 a 14.039854,14.039854 0 0 0 -2.52539,0.755859 l -1.30078,0.525391 a 14.039854,14.039854 0 0 0 -2.29102,1.18164 l -1.30078,0.830078 a 14.039854,14.039854 0 0 0 -1.66406,1.246094 l -1.300783,1.130859 a 14.039854,14.039854 0 0 0 -1.171875,1.148438 l -1.300781,1.431641 a 14.039854,14.039854 0 0 0 -0.908203,1.109375 l -1.625,2.205078 a 14.039854,14.039854 0 0 0 -0.675781,1.005859 l -1.625,2.658203 a 14.039854,14.039854 0 0 0 -0.457031,0.806641 l -1.625,3.099609 a 14.039854,14.039854 0 0 0 -0.345704,0.705078 l -1.949218,4.28711 a 14.039854,14.039854 0 0 0 -0.257813,0.605468 l -1.951172,4.882813 A 14.039854,14.039854 0 0 0 85.625,70.152344 l -2.273438,6.412109 a 14.039854,14.039854 0 0 0 -0.144531,0.429688 l -2.27539,7.134765 a 14.039854,14.039854 0 0 0 -0.109375,0.355469 l -2.59961,8.966797 a 14.039854,14.039854 0 0 0 -0.08398,0.30664 l -2.925781,11.017578 a 14.039854,14.039854 0 0 0 -0.06445,0.25195 l -3.25,13.22852 a 14.039854,14.039854 0 0 0 -0.04883,0.20898 L 67.625,136.87891 a 14.039854,14.039854 0 0 0 -0.03711,0.16796 l -7.47461,34.50977 A 14.03845,14.03845 0 0 0 70.861328,188.24805 14.03845,14.03845 0 0 0 87.552734,177.5 l 7.457032,-34.42578 4.18164,-18.22461 3.191404,-12.99609 2.85157,-10.73633 2.5039,-8.636721 2.14844,-6.740235 2.10742,-5.941406 1.72656,-4.322266 0.70508,-1.550781 1.61133,3.8125 1.76562,4.701172 2.13282,6.335938 2.16797,7.101562 2.51757,8.999997 2.85938,11.08789 3.20117,13.32032 3.86523,17.06445 5.50977,25.44336 8.77344,40.57617 a 14.039854,14.039854 0 0 0 0.0391,0.16797 l 3.89844,17.02148 a 14.039854,14.039854 0 0 0 0.0469,0.19727 l 3.25,13.29687 a 14.039854,14.039854 0 0 0 0.0625,0.2461 l 2.92578,11.09375 a 14.039854,14.039854 0 0 0 0.082,0.29883 l 2.5996,9.04492 a 14.039854,14.039854 0 0 0 0.10352,0.3457 l 2.27539,7.20899 a 14.039854,14.039854 0 0 0 0.13867,0.41796 l 2.27539,6.49219 a 14.039854,14.039854 0 0 0 0.18555,0.49805 l 1.94922,4.95508 a 14.039854,14.039854 0 0 0 0.24609,0.58593 l 1.95117,4.36329 a 14.039854,14.039854 0 0 0 0.32618,0.68359 l 1.625,3.16601 a 14.039854,14.039854 0 0 0 0.43359,0.7793 l 1.625,2.72461 a 14.039854,14.039854 0 0 0 0.63672,0.97461 l 1.625,2.27344 a 14.039854,14.039854 0 0 0 0.84961,1.07422 l 1.30078,1.48828 a 14.039854,14.039854 0 0 0 1.09766,1.12109 l 1.29882,1.1875 a 14.039854,14.039854 0 0 0 1.5625,1.23633 l 1.29883,0.88672 a 14.039854,14.039854 0 0 0 2.16797,1.21289 l 1.30078,0.58398 a 14.039854,14.039854 0 0 0 2.8125,0.91797 l 1.30078,0.27735 a 14.039854,14.039854 0 0 0 2.82813,0.30859 l 0.97461,0.008 a 14.039854,14.039854 0 0 0 2.44336,-0.19726 l 0.97656,-0.16407 a 14.039854,14.039854 0 0 0 2.58594,-0.69726 l 1.29883,-0.48633 a 14.039854,14.039854 0 0 0 2.375,-1.15625 l 1.30078,-0.79297 a 14.039854,14.039854 0 0 0 1.73632,-1.25 l 1.30079,-1.09375 a 14.039854,14.039854 0 0 0 1.22656,-1.16601 l 1.29883,-1.39258 a 14.039854,14.039854 0 0 0 0.86132,-1.01563 l 1.29883,-1.6914 a 14.039854,14.039854 0 0 0 0.67383,-0.95508 l 1.625,-2.52344 a 14.039854,14.039854 0 0 0 0.51367,-0.86133 l 1.625,-2.96875 a 14.039854,14.039854 0 0 0 0.35352,-0.6914 l 1.625,-3.4043 a 14.039854,14.039854 0 0 0 0.27344,-0.60742 l 1.94921,-4.63867 a 14.039854,14.039854 0 0 0 0.20899,-0.52539 l 1.94922,-5.2168 a 14.039854,14.039854 0 0 0 0.16015,-0.44922 l 2.27344,-6.7793 a 14.039854,14.039854 0 0 0 0.1211,-0.3789 l 2.27539,-7.47657 a 14.039854,14.039854 0 0 0 0.0918,-0.31445 l 2.59961,-9.32031 a 14.039854,14.039854 0 0 0 0.0742,-0.27344 l 2.92383,-11.36328 A 14.039854,14.039854 0 0 0 236,239.43164 l 3.25,-13.54492 a 14.039854,14.039854 0 0 0 0.041,-0.17578 l 3.89843,-17.23828 a 14.039854,14.039854 0 0 0 0.0293,-0.12696 l 5.52539,-25.52343 a 14.039854,14.039854 0 0 0 0,-0.002 l 8.75586,-40.47656 3.85742,-16.81445 3.19531,-13.05078 2.85157,-10.79297 2.50586,-8.693363 2.15234,-6.796875 2.11133,-6.003906 1.73437,-4.380859 0.84766,-1.886719 0.0391,0.08203 1.71485,4.09961 1.76953,4.757812 2.13672,6.394531 2.17187,7.154297 2.51758,9.054692 2.86133,11.14062 3.20312,13.36719 3.86524,17.10547 5.83593,26.99219 a 14.039854,14.039854 0 0 0 0,0.004 l 8.45118,39.02344 a 14.039854,14.039854 0 0 0 0.0371,0.17187 l 3.9004,16.97852 a 14.039854,14.039854 0 0 0 0.0469,0.20312 l 3.25,13.25 a 14.039854,14.039854 0 0 0 0.0644,0.25 l 2.92383,11.04297 a 14.039854,14.039854 0 0 0 0.0859,0.30469 l 2.59961,8.99219 a 14.039854,14.039854 0 0 0 0.10547,0.35351 l 2.27539,7.16016 a 14.039854,14.039854 0 0 0 0.14258,0.42383 l 2.27539,6.43945 a 14.039854,14.039854 0 0 0 0.18945,0.50781 l 1.95117,4.90625 a 14.039854,14.039854 0 0 0 0.25391,0.59961 l 1.94922,4.3125 a 14.039854,14.039854 0 0 0 0.33984,0.69727 l 1.625,3.12305 a 14.039854,14.039854 0 0 0 0.44727,0.79687 l 1.625,2.67969 a 14.039854,14.039854 0 0 0 0.66406,0.99609 l 1.625,2.22656 a 14.039854,14.039854 0 0 0 0.88867,1.09766 l 1.29883,1.45117 a 14.039854,14.039854 0 0 0 1.14844,1.13867 l 1.29882,1.1504 a 14.039854,14.039854 0 0 0 1.63086,1.24414 l 1.29883,0.84961 a 14.039854,14.039854 0 0 0 2.25195,1.19335 l 1.29883,0.54297 a 14.039854,14.039854 0 0 0 2.88477,0.85938 L 355,309.2832 a 14.039854,14.039854 0 0 0 2.84961,0.22852 l 0.97461,-0.0215 A 14.039854,14.039854 0 0 0 361.25,309.2246 l 0.97656,-0.19531 a 14.039854,14.039854 0 0 0 2.52539,-0.75391 l 1.30078,-0.52539 a 14.039854,14.039854 0 0 0 2.29102,-1.18164 l 1.30078,-0.83008 a 14.039854,14.039854 0 0 0 1.66406,-1.24609 l 1.30078,-1.13282 a 14.039854,14.039854 0 0 0 1.17188,-1.14843 l 1.30078,-1.43164 a 14.039854,14.039854 0 0 0 0.82422,-0.99414 l 1.29883,-1.72852 a 14.039854,14.039854 0 0 0 0.64648,-0.93555 l 1.625,-2.56836 a 14.039854,14.039854 0 0 0 0.49414,-0.84179 l 1.625,-3.01367 a 14.039854,14.039854 0 0 0 0.3418,-0.67579 l 1.625,-3.44531 a 14.039854,14.039854 0 0 0 0.26367,-0.5957 l 1.94922,-4.6875 a 14.039854,14.039854 0 0 0 0.20313,-0.51563 l 1.94921,-5.26562 a 14.039854,14.039854 0 0 0 0.15625,-0.43945 l 2.27344,-6.83204 a 14.039854,14.039854 0 0 0 0.11914,-0.37109 l 2.27539,-7.52344 a 14.039854,14.039854 0 0 0 0.0898,-0.31054 l 2.59961,-9.36914 a 14.039854,14.039854 0 0 0 0.0703,-0.26758 l 2.92578,-11.41211 a 14.039854,14.039854 0 0 0 0.0547,-0.21875 l 3.25,-13.58985 a 14.039854,14.039854 0 0 0 0.0391,-0.17382 l 3.90039,-17.27344 a 14.039854,14.039854 0 0 0 0.0273,-0.12695 l 5.84961,-27.06836 a 14.039854,14.039854 0 0 0 0.008,-0.0312 l 0.65039,-3.04297 a 14.03845,14.03845 0 0 0 -10.79688,-16.66211 14.03845,14.03845 0 0 0 -16.66211,10.79687 l -0.64648,3.02539 -5.83203,26.99024 -3.86524,17.12304 -3.20312,13.39063 -2.86133,11.16797 -2.51953,9.08008 -2.17188,7.18164 -2.14062,6.42578 -1.77149,4.78515 -1.71875,4.12891 -0.10937,0.23438 -0.77539,-1.71485 -1.73047,-4.35351 -2.10938,-5.97071 -2.15234,-6.76953 -2.50391,-8.66601 -2.85156,-10.76368 -3.19336,-13.02539 -3.85742,-16.79296 -8.43164,-38.93555 -5.84766,-27.05469 a 14.039854,14.039854 0 0 0 -0.0293,-0.12891 l -3.89844,-17.25585 a 14.039854,14.039854 0 0 0 -0.041,-0.17579 l -3.25,-13.5664 a 14.039854,14.039854 0 0 0 -0.0566,-0.2207 L 314.2658,98.345743 a 14.039854,14.039854 0 0 0 -0.0723,-0.269531 l -2.59961,-9.345703 a 14.039854,14.039854 0 0 0 -0.0918,-0.3125 l -2.27343,-7.498047 a 14.039854,14.039854 0 0 0 -0.1211,-0.376953 l -2.27344,-6.804688 a 14.039854,14.039854 0 0 0 -0.1582,-0.445312 l -1.94922,-5.240235 a 14.039854,14.039854 0 0 0 -0.20508,-0.521484 l -1.95117,-4.662109 a 14.039854,14.039854 0 0 0 -0.26758,-0.601563 l -1.625,-3.425781 a 14.039854,14.039854 0 0 0 -0.34765,-0.683594 l -1.625,-2.990234 a 14.039854,14.039854 0 0 0 -0.50196,-0.851563 l -1.625,-2.546875 a 14.039854,14.039854 0 0 0 -0.66015,-0.945312 l -1.30078,-1.708985 a 14.039854,14.039854 0 0 0 -0.8418,-1.005859 l -1.30078,-1.412109 a 14.039854,14.039854 0 0 0 -1.19922,-1.15625 l -1.29883,-1.113282 a 14.039854,14.039854 0 0 0 -1.70117,-1.248047 l -1.30078,-0.8125 a 14.039854,14.039854 0 0 0 -2.33203,-1.167968 l -1.30078,-0.507813 a 14.039854,14.039854 0 0 0 -2.55664,-0.726562 l -0.97461,-0.177735 a 14.039854,14.039854 0 0 0 -2.4375,-0.232422 l -0.97461,-0.0078 a 14.039854,14.039854 0 0 0 -2.83985,0.269531 l -1.29882,0.257813 a 14.039854,14.039854 0 0 0 -2.84961,0.890625 l -1.30079,0.564453 a 14.039854,14.039854 0 0 0 -2.20898,1.203125 l -1.29883,0.867187 a 14.039854,14.039854 0 0 0 -1.5957,1.240235 l -1.30078,1.169922 a 14.039854,14.039854 0 0 0 -1.1211,1.130859 l -1.30078,1.46875 a 14.039854,14.039854 0 0 0 -0.86914,1.085937 l -1.625,2.25 a 14.039854,14.039854 0 0 0 -0.65039,0.984375 l -1.625,2.703125 a 14.039854,14.039854 0 0 0 -0.43945,0.789063 l -1.625,3.142578 a 14.039854,14.039854 0 0 0 -0.33203,0.691406 l -1.95117,4.337891 a 14.039854,14.039854 0 0 0 -0.25,0.591797 l -1.94922,4.93164 a 14.039854,14.039854 0 0 0 -0.1875,0.501954 l -2.27539,6.466796 a 14.039854,14.039854 0 0 0 -0.14063,0.421875 l -2.27539,7.183594 a 14.039854,14.039854 0 0 0 -0.10547,0.34961 l -2.59961,9.017578 a 14.039854,14.039854 0 0 0 -0.084,0.302734 l -2.92395,11.06831 a 14.039854,14.039854 0 0 0 -0.0644,0.24804 l -3.25,13.27344 a 14.039854,14.039854 0 0 0 -0.0469,0.19922 l -3.90039,17 a 14.039854,14.039854 0 0 0 -0.0371,0.17188 l -8.77539,40.56054 -5.50976,25.45899 -3.86524,17.08398 -3.20117,13.34375 -2.86133,11.11524 -2.51758,9.02734 -2.16992,7.12695 -2.13476,6.36524 -1.76758,4.73047 -1.68164,3.99804 -0.91993,-2.05664 -1.73437,-4.41211 -2.11523,-6.0332 -2.1543,-6.82617 -2.50586,-8.72071 -2.85352,-10.82031 -3.19531,-13.07617 -3.85742,-16.83594 -8.75781,-40.49414 a 14.039854,14.039854 0 0 0 0,-0.004 L 161.9727,140.3417 a 14.039854,14.039854 0 0 0 -0.0273,-0.12891 l -3.90039,-17.21875 a 14.039854,14.039854 0 0 0 -0.041,-0.17969 l -3.25,-13.52343 a 14.039854,14.039854 0 0 0 -0.0566,-0.22657 l -2.92579,-11.337888 a 14.039854,14.039854 0 0 0 -0.0723,-0.27539 l -2.60156,-9.296875 a 14.039854,14.039854 0 0 0 -0.0918,-0.316406 l -2.27539,-7.453125 a 14.039854,14.039854 0 0 0 -0.12305,-0.38086 L 144.33398,73.25 a 14.039854,14.039854 0 0 0 -0.16211,-0.453125 l -1.94921,-5.193359 a 14.039854,14.039854 0 0 0 -0.21289,-0.533204 l -1.94922,-4.611328 A 14.039854,14.039854 0 0 0 139.7832,61.84375 l -1.625,-3.382813 a 14.039854,14.039854 0 0 0 -0.36133,-0.697265 l -1.62304,-2.947266 a 14.039854,14.039854 0 0 0 -0.52344,-0.871094 l -1.625,-2.5 a 14.039854,14.039854 0 0 0 -0.6875,-0.966796 l -1.30078,-1.671875 A 14.039854,14.039854 0 0 0 131.1582,47.78125 l -1.30078,-1.376953 a 14.039854,14.039854 0 0 0 -1.2539,-1.171875 l -1.29883,-1.076172 a 14.039854,14.039854 0 0 0 -1.77539,-1.25 l -1.29883,-0.773438 a 14.039854,14.039854 0 0 0 -2.41602,-1.140625 l -1.30078,-0.46875 a 14.039854,14.039854 0 0 0 -2.61328,-0.666015 l -0.97656,-0.150391 a 14.039854,14.039854 0 0 0 -2.45313,-0.162109 z"
         id="sine_blur"
         transform="matrix(0.15553215,0,0,0.1304974,81.024417,-1.988159)" />
      <path
         d="m 73.832727,174.528 7.474529,-34.50952 4.224734,-18.41333 3.249795,-13.2277 2.924816,-11.016813 2.599836,-8.967426 2.274857,-7.134463 2.274857,-6.411788 1.949879,-4.882811 1.94988,-4.287468 1.62489,-3.100398 1.6249,-2.657692 1.6249,-2.204474 1.29992,-1.431345 1.29991,-1.132049 1.29992,-0.829887 1.29992,-0.525625 0.97494,-0.193718 0.97494,-0.02153 0.97494,0.150687 1.29991,0.468405 1.29992,0.772976 1.29992,1.075588 1.29992,1.37548 1.29992,1.671889 1.62489,2.50017 1.6249,2.946757 1.6249,3.381691 1.94988,4.613195 1.94987,5.19389 2.27486,6.753843 2.27486,7.451524 2.59983,9.296032 2.92482,11.33952 3.24979,13.52314 3.89976,17.21833 5.52465,25.51122 8.77445,40.57762 3.89975,17.02045 3.2498,13.29785 2.92481,11.09294 2.59984,9.04461 2.27486,7.20871 2.27485,6.4917 1.94988,4.95534 1.94988,4.36329 1.62489,3.16579 1.6249,2.72481 1.6249,2.27306 1.29992,1.48708 1.29992,1.18841 1.29991,0.88672 1.29992,0.5828 1.29992,0.2774 0.97494,0.007 0.97494,-0.16504 1.29991,-0.48748 1.29992,-0.79195 1.29992,-1.09442 1.29992,-1.39412 1.29992,-1.69028 1.62489,-2.52275 1.6249,-2.96879 1.6249,-3.4031 1.94988,-4.63794 1.94987,-5.21747 2.27486,-6.77969 2.27486,-7.47541 2.59983,-9.32067 2.92482,-11.36357 3.24979,-13.54493 3.89976,-17.23718 5.52465,-25.52356 8.77445,-40.5617 3.89975,-16.99972 3.2498,-13.27461 2.92481,-11.067668 2.59984,-9.01897 2.27486,-7.184031 2.27485,-6.465124 1.94988,-4.931213 1.94988,-4.33806 1.6249,-3.144024 1.62489,-2.702464 1.6249,-2.250218 1.29992,-1.468518 1.29992,-1.169632 1.29991,-0.867789 1.29992,-0.563746 1.29992,-0.258279 0.97494,0.0072 0.97494,0.179376 1.29992,0.506557 1.29992,0.810924 1.29991,1.11324 1.29992,1.412737 1.29992,1.708658 1.6249,2.545303 1.62489,2.990804 1.6249,3.424476 1.94988,4.662637 1.94988,5.24099 2.27485,6.80548 2.27486,7.49921 2.59984,9.345224 2.92481,11.3875 3.2498,13.56659 3.89975,17.25587 5.84963,27.05627 8.44947,39.02473 3.89975,16.97884 3.2498,13.25122 2.92481,11.0423 2.59984,8.99324 2.27486,7.15928 2.27485,6.43849 1.94988,4.90703 1.94988,4.31279 1.6249,3.12223 1.62489,2.68009 1.6249,2.22736 1.29992,1.44993 1.29992,1.15085 1.29992,0.84884 1.29991,0.54469 1.29992,0.23916 0.97494,-0.0215 0.97494,-0.19372 1.29992,-0.52563 1.29992,-0.82988 1.29991,-1.13205 1.29992,-1.43135 1.29992,-1.72701 1.6249,-2.56784 1.6249,-3.01278 1.62489,-3.44582 1.94988,-4.68729 1.94988,-5.26446 2.27485,-6.8312 2.27486,-7.52294 2.59984,-9.36968 2.92481,-11.41132 3.2498,-13.58812 3.89975,-17.27438 5.84963,-27.06826 0.64996,-3.04278 v 0"
         clip-path="url(#p46a843d1e2-1)"
         style="fill:none;stroke:#5ddfff;stroke-width:14.0384;stroke-linecap:round;stroke-linejoin:round;stroke-dasharray:none;stroke-opacity:1"
         id="sine"
         transform="matrix(0.15553215,0,0,0.1304974,81.024417,-1.9881488)" />
      <path
         d="m 73.832727,174.528 7.474529,-34.50952 4.224734,-18.41333 3.249795,-13.2277 2.924816,-11.016813 2.599836,-8.967426 2.274857,-7.134463 2.274857,-6.411788 1.949879,-4.882811 1.94988,-4.287468 1.62489,-3.100398 1.6249,-2.657692 1.6249,-2.204474 1.29992,-1.431345 1.29991,-1.132049 1.29992,-0.829887 1.29992,-0.525625 0.97494,-0.193718 0.97494,-0.02153 0.97494,0.150687 1.29991,0.468405 1.29992,0.772976 1.29992,1.075588 1.29992,1.37548 1.29992,1.671889 1.62489,2.50017 1.6249,2.946757 1.6249,3.381691 1.94988,4.613195 1.94987,5.19389 2.27486,6.753843 2.27486,7.451524 2.59983,9.296032 2.92482,11.33952 3.24979,13.52314 3.89976,17.21833 5.52465,25.51122 8.77445,40.57762 3.89975,17.02045 3.2498,13.29785 2.92481,11.09294 2.59984,9.04461 2.27486,7.20871 2.27485,6.4917 1.94988,4.95534 1.94988,4.36329 1.62489,3.16579 1.6249,2.72481 1.6249,2.27306 1.29992,1.48708 1.29992,1.18841 1.29991,0.88672 1.29992,0.5828 1.29992,0.2774 0.97494,0.007 0.97494,-0.16504 1.29991,-0.48748 1.29992,-0.79195 1.29992,-1.09442 1.29992,-1.39412 1.29992,-1.69028 1.62489,-2.52275 1.6249,-2.96879 1.6249,-3.4031 1.94988,-4.63794 1.94987,-5.21747 2.27486,-6.77969 2.27486,-7.47541 2.59983,-9.32067 2.92482,-11.36357 3.24979,-13.54493 3.89976,-17.23718 5.52465,-25.52356 8.77445,-40.5617 3.89975,-16.99972 3.2498,-13.27461 2.92481,-11.067668 2.59984,-9.01897 2.27486,-7.184031 2.27485,-6.465124 1.94988,-4.931213 1.94988,-4.33806 1.6249,-3.144024 1.62489,-2.702464 1.6249,-2.250218 1.29992,-1.468518 1.29992,-1.169632 1.29991,-0.867789 1.29992,-0.563746 1.29992,-0.258279 0.97494,0.0072 0.97494,0.179376 1.29992,0.506557 1.29992,0.810924 1.29991,1.11324 1.29992,1.412737 1.29992,1.708658 1.6249,2.545303 1.62489,2.990804 1.6249,3.424476 1.94988,4.662637 1.94988,5.24099 2.27485,6.80548 2.27486,7.49921 2.59984,9.345224 2.92481,11.3875 3.2498,13.56659 3.89975,17.25587 5.84963,27.05627 8.44947,39.02473 3.89975,16.97884 3.2498,13.25122 2.92481,11.0423 2.59984,8.99324 2.27486,7.15928 2.27485,6.43849 1.94988,4.90703 1.94988,4.31279 1.6249,3.12223 1.62489,2.68009 1.6249,2.22736 1.29992,1.44993 1.29992,1.15085 1.29992,0.84884 1.29991,0.54469 1.29992,0.23916 0.97494,-0.0215 0.97494,-0.19372 1.29992,-0.52563 1.29992,-0.82988 1.29991,-1.13205 1.29992,-1.43135 1.29992,-1.72701 1.6249,-2.56784 1.6249,-3.01278 1.62489,-3.44582 1.94988,-4.68729 1.94988,-5.26446 2.27485,-6.8312 2.27486,-7.52294 2.59984,-9.36968 2.92481,-11.41132 3.2498,-13.58812 3.89975,-17.27438 5.84963,-27.06826 0.64996,-3.04278 v 0"
         clip-path="url(#p46a843d1e2-7)"
         style="fill:none;stroke:#ffffff;stroke-width:7.01922;stroke-linecap:round;stroke-linejoin:round;stroke-dasharray:none;stroke-opacity:1;filter:url(#filter50)"
         id="sine_white"
         transform="matrix(0.15553215,0,0,0.1304974,81.024417,-1.9881492)" />
    </g>
  </g>
</svg>
