<?xml version="1.0" encoding="UTF-8" standalone="no"?>
<!-- Created with Inkscape (http://www.inkscape.org/) -->

<svg
   width="11.035502mm"
   height="11.035511mm"
   viewBox="0 0 11.035502 11.035511"
   version="1.1"
   id="svg1"
   xml:space="preserve"
   xmlns="http://www.w3.org/2000/svg"
   xmlns:svg="http://www.w3.org/2000/svg"><defs
     id="defs1"><linearGradient
       id="swatch132"><stop
         style="stop-color:#72c2d6;stop-opacity:1;"
         offset="0"
         id="stop133" /></linearGradient><linearGradient
       id="linearGradient131"><stop
         style="stop-color:#3293ab;stop-opacity:1;"
         offset="0"
         id="stop131" /><stop
         style="stop-color:#3293ab;stop-opacity:0;"
         offset="1"
         id="stop132" /></linearGradient></defs><g
     id="layer1"
     transform="translate(-165.10619,-132.2151)"><path
       d="m 165.36458,139.87555 1.16875,-1.16875 1.16874,-3.50624 2.3375,-2.3375 0.38958,0.38959 1.16874,-1.16875 q 0.3214,-0.3214 0.77915,-0.3214 0.45776,0 0.77917,0.32142 l 3.11665,3.11664 q 0.3214,0.32141 0.32142,0.77918 -1e-5,0.45774 -0.32141,0.77914 l -1.16874,1.16875 0.38958,0.38958 -2.3375,2.33749 -3.50624,1.16874 -1.16875,1.16875 z m 5.84374,-5.84374 0.77915,0.77916 0.77915,-0.77915 0.38959,0.3896 -0.77914,0.77914 0.77915,0.77916 0.77915,-0.77915 0.38959,0.38959 -0.77915,0.77915 0.77915,0.77915 1.16874,-1.16874 -3.11664,-3.11665 z m -4.28543,5.84374 1.55834,1.55834 0.58438,-0.58438 3.50623,-1.16875 1.36354,-1.36353 -3.89583,-3.89584 -1.36354,1.36354 -1.16874,3.50624 z m 3.70105,-2.1427"
       id="path1-2-0-1"
       style="fill:#ff132f;fill-opacity:1;stroke-width:0;stroke-dasharray:none" /><path
       style="fill:#ff132f;fill-opacity:1;stroke:#ffffff;stroke-width:2.939;stroke-linecap:round;stroke-linejoin:bevel;stroke-dasharray:none;stroke-dashoffset:0;stroke-opacity:1"
       d="m 166.26735,133.43505 8.99649,8.9965"
       id="path135-2" /><path
       style="fill:#ff132f;fill-opacity:1;stroke:#ff132f;stroke-width:2.039;stroke-linecap:round;stroke-linejoin:bevel;stroke-dasharray:none;stroke-dashoffset:0;stroke-opacity:1"
       d="m 166.12569,133.2346 8.99649,8.9965"
       id="path135" /></g></svg>
