<?xml version="1.0" encoding="UTF-8" standalone="no"?>
<!-- Created with Inkscape (http://www.inkscape.org/) -->

<svg
   width="14.287718mm"
   height="13.77156mm"
   viewBox="0 0 14.287718 13.77156"
   version="1.1"
   id="svg1"
   xml:space="preserve"
   xmlns:inkscape="http://www.inkscape.org/namespaces/inkscape"
   xmlns:sodipodi="http://sodipodi.sourceforge.net/DTD/sodipodi-0.dtd"
   xmlns="http://www.w3.org/2000/svg"
   xmlns:svg="http://www.w3.org/2000/svg"><sodipodi:namedview
     id="namedview1"
     pagecolor="#ffffff"
     bordercolor="#000000"
     borderopacity="0.25"
     inkscape:showpageshadow="2"
     inkscape:pageopacity="0.0"
     inkscape:pagecheckerboard="0"
     inkscape:deskcolor="#d1d1d1"
     inkscape:document-units="mm"
     inkscape:zoom="3.0933652"
     inkscape:cx="469.06845"
     inkscape:cy="505.11334"
     inkscape:window-width="2560"
     inkscape:window-height="1361"
     inkscape:window-x="1911"
     inkscape:window-y="-9"
     inkscape:window-maximized="1"
     inkscape:current-layer="layer1" /><defs
     id="defs1"><linearGradient
       id="swatch132"
       inkscape:swatch="solid"><stop
         style="stop-color:#72c2d6;stop-opacity:1;"
         offset="0"
         id="stop133" /></linearGradient><linearGradient
       id="linearGradient131"
       inkscape:swatch="gradient"><stop
         style="stop-color:#3293ab;stop-opacity:1;"
         offset="0"
         id="stop131" /><stop
         style="stop-color:#3293ab;stop-opacity:0;"
         offset="1"
         id="stop132" /></linearGradient><filter
       style="color-interpolation-filters:sRGB"
       inkscape:label="Blur"
       id="filter127"
       x="-0.15918281"
       y="-0.1385441"
       width="1.3183656"
       height="1.2770882"><feGaussianBlur
         stdDeviation="0.31 0.31"
         result="blur"
         id="feGaussianBlur127" /></filter></defs><g
     inkscape:label="Calque 1"
     inkscape:groupmode="layer"
     id="layer1"
     transform="translate(-116.98234,-184.32632)"><path
       d="m 122.64345,196.60388 -0.21567,-1.72535 q -0.17525,-0.0675 -0.33025,-0.1618 -0.15508,-0.0943 -0.30326,-0.20216 l -1.60407,0.67398 -1.48273,-2.56109 1.38839,-1.0514 q -0.0142,-0.0943 -0.0142,-0.18199 v -0.36395 q 0,-0.0875 0.0142,-0.18199 l -1.38839,-1.0514 1.48273,-2.56108 1.60407,0.67397 q 0.14834,-0.10777 0.31001,-0.20216 0.1618,-0.0943 0.3235,-0.1618 l 0.21567,-1.72535 h 2.96547 l 0.21569,1.72535 q 0.17525,0.0675 0.33024,0.1618 0.15507,0.0943 0.30328,0.20216 l 1.60406,-0.67397 1.48273,2.56108 -1.38839,1.0514 q 0.0142,0.0943 0.0142,0.18199 v 0.36395 q 0,0.0876 -0.0269,0.18199 l 1.38839,1.0514 -1.48274,2.56109 -1.59058,-0.67398 q -0.14835,0.10777 -0.31001,0.20216 -0.16181,0.0943 -0.32352,0.1618 l -0.21567,1.72535 z m 0.94358,-1.07834 h 1.06486 l 0.18871,-1.42883 q 0.41785,-0.10778 0.77507,-0.31675 0.35721,-0.20895 0.65375,-0.50549 l 1.33447,0.55266 0.5257,-0.91661 -1.15923,-0.87615 q 0.0675,-0.18871 0.0944,-0.39766 0.0269,-0.20893 0.0269,-0.42459 0,-0.21567 -0.0269,-0.42461 -0.0269,-0.20893 -0.0944,-0.39764 l 1.15923,-0.87617 -0.5257,-0.91659 -1.33447,0.56613 q -0.29654,-0.31001 -0.65375,-0.51895 -0.35722,-0.20893 -0.77507,-0.31676 l -0.17526,-1.42884 h -1.06486 l -0.18871,1.42884 q -0.41787,0.10777 -0.77507,0.31676 -0.3572,0.20894 -0.65376,0.50548 l -1.33445,-0.55266 -0.5257,0.91659 1.15922,0.8627 q -0.0675,0.20216 -0.0944,0.40437 -0.0269,0.20216 -0.0269,0.43135 0,0.21566 0.0269,0.41786 0.0269,0.20215 0.0944,0.40439 l -1.15922,0.87615 0.5257,0.91661 1.33445,-0.56614 q 0.29656,0.31002 0.65376,0.51897 0.3572,0.20892 0.77507,0.31675 z m 0.56613,-2.4263 q 0.78179,0 1.33445,-0.55267 0.55267,-0.55264 0.55267,-1.33445 0,-0.78182 -0.55267,-1.33445 -0.55266,-0.55266 -1.33445,-0.55266 -0.79529,0 -1.34121,0.55266 -0.5459,0.55263 -0.5459,1.33445 0,0.78181 0.5459,1.33445 0.54592,0.55267 1.34121,0.55267 m -0.0269,-1.88712"
       id="path1-0-8"
       style="fill:#5ddfff;fill-opacity:1;stroke:#5ddfff;stroke-width:1.5;stroke-dasharray:none;stroke-opacity:1;filter:url(#filter127)" /><path
       d="m 122.64345,196.60388 -0.21567,-1.72535 q -0.17525,-0.0675 -0.33025,-0.1618 -0.15508,-0.0943 -0.30326,-0.20216 l -1.60407,0.67398 -1.48273,-2.56109 1.38839,-1.0514 q -0.0142,-0.0943 -0.0142,-0.18199 v -0.36395 q 0,-0.0875 0.0142,-0.18199 l -1.38839,-1.0514 1.48273,-2.56108 1.60407,0.67397 q 0.14834,-0.10777 0.31001,-0.20216 0.1618,-0.0943 0.3235,-0.1618 l 0.21567,-1.72535 h 2.96547 l 0.21569,1.72535 q 0.17525,0.0675 0.33024,0.1618 0.15507,0.0943 0.30328,0.20216 l 1.60406,-0.67397 1.48273,2.56108 -1.38839,1.0514 q 0.0142,0.0943 0.0142,0.18199 v 0.36395 q 0,0.0876 -0.0269,0.18199 l 1.38839,1.0514 -1.48274,2.56109 -1.59058,-0.67398 q -0.14835,0.10777 -0.31001,0.20216 -0.16181,0.0943 -0.32352,0.1618 l -0.21567,1.72535 z m 0.94358,-1.07834 h 1.06486 l 0.18871,-1.42883 q 0.41785,-0.10778 0.77507,-0.31675 0.35721,-0.20895 0.65375,-0.50549 l 1.33447,0.55266 0.5257,-0.91661 -1.15923,-0.87615 q 0.0675,-0.18871 0.0944,-0.39766 0.0269,-0.20893 0.0269,-0.42459 0,-0.21567 -0.0269,-0.42461 -0.0269,-0.20893 -0.0944,-0.39764 l 1.15923,-0.87617 -0.5257,-0.91659 -1.33447,0.56613 q -0.29654,-0.31001 -0.65375,-0.51895 -0.35722,-0.20893 -0.77507,-0.31676 l -0.17526,-1.42884 h -1.06486 l -0.18871,1.42884 q -0.41787,0.10777 -0.77507,0.31676 -0.3572,0.20894 -0.65376,0.50548 l -1.33445,-0.55266 -0.5257,0.91659 1.15922,0.8627 q -0.0675,0.20216 -0.0944,0.40437 -0.0269,0.20216 -0.0269,0.43135 0,0.21566 0.0269,0.41786 0.0269,0.20215 0.0944,0.40439 l -1.15922,0.87615 0.5257,0.91661 1.33445,-0.56614 q 0.29656,0.31002 0.65376,0.51897 0.3572,0.20892 0.77507,0.31675 z m 0.56613,-2.4263 q 0.78179,0 1.33445,-0.55267 0.55267,-0.55264 0.55267,-1.33445 0,-0.78182 -0.55267,-1.33445 -0.55266,-0.55266 -1.33445,-0.55266 -0.79529,0 -1.34121,0.55266 -0.5459,0.55263 -0.5459,1.33445 0,0.78181 0.5459,1.33445 0.54592,0.55267 1.34121,0.55267 m -0.0269,-1.88712"
       id="path1-0-5"
       style="fill:#ffffff;fill-opacity:1;stroke:#ffffff;stroke-width:1e-05;stroke-dasharray:none;stroke-opacity:1" /></g></svg>
