<?xml version="1.0" encoding="UTF-8" standalone="no"?>
<!-- Created with Inkscape (http://www.inkscape.org/) -->

<svg
   width="18.572376mm"
   height="14.01922mm"
   viewBox="0 0 18.572376 14.01922"
   version="1.1"
   id="svg1"
   inkscape:version="1.3.2 (091e20e, 2023-11-25, custom)"
   sodipodi:docname="cyclic_ramp.svg"
   xmlns:inkscape="http://www.inkscape.org/namespaces/inkscape"
   xmlns:sodipodi="http://sodipodi.sourceforge.net/DTD/sodipodi-0.dtd"
   xmlns="http://www.w3.org/2000/svg"
   xmlns:svg="http://www.w3.org/2000/svg">
  <sodipodi:namedview
     id="namedview1"
     pagecolor="#ffffff"
     bordercolor="#000000"
     borderopacity="0.25"
     inkscape:showpageshadow="2"
     inkscape:pageopacity="0.0"
     inkscape:pagecheckerboard="0"
     inkscape:deskcolor="#d1d1d1"
     inkscape:document-units="mm"
     inkscape:zoom="0.70110129"
     inkscape:cx="23.534403"
     inkscape:cy="110.54038"
     inkscape:window-width="1920"
     inkscape:window-height="1001"
     inkscape:window-x="-9"
     inkscape:window-y="-9"
     inkscape:window-maximized="1"
     inkscape:current-layer="layer1" />
  <defs
     id="defs1">
    <clipPath
       id="p9b991f9323-9-9">
      <rect
         x="57.599998"
         y="41.472"
         width="357.12"
         height="266.112"
         id="rect37-2-8" />
    </clipPath>
  </defs>
  <g
     inkscape:label="Calque 1"
     inkscape:groupmode="layer"
     id="layer1"
     transform="translate(-98.689579,-119.32709)">
    <g
       id="group_rampsine"
       transform="matrix(0.35277777,0,0,0.35277777,101.36386,143.96664)"
       style="stroke-linecap:butt;stroke-linejoin:round">
      <path
         d="m 73.832727,295.488 8.449468,-24.84993 4.549713,-12.68529 3.899755,-10.1977 3.249795,-7.89412 2.924816,-6.55826 2.599836,-5.34756 2.59984,-4.85783 2.27485,-3.8255 2.27486,-3.41133 2.27486,-2.98386 1.94987,-2.20971 1.94988,-1.88396 1.94988,-1.55575 1.6249,-1.04526 1.62489,-0.81755 1.6249,-0.5914 1.6249,-0.3677 1.6249,-0.14732 1.62489,0.0688 1.6249,0.27994 1.6249,0.48515 1.94988,0.84356 1.94987,1.11628 1.94988,1.37438 2.27486,1.9081 2.27485,2.20951 2.59984,2.85532 2.92481,3.57499 3.2498,4.336 4.22473,6.0382 12.99918,18.91271 3.2498,4.21265 2.92482,3.43311 2.59983,2.70618 2.27486,2.06244 2.27486,1.74677 1.94987,1.22568 1.94988,0.95887 1.94988,0.67833 1.62489,0.34216 1.6249,0.13274 1.6249,-0.082 1.6249,-0.3012 1.62489,-0.52399 1.6249,-0.7495 1.6249,-0.97684 1.6249,-1.2051 1.94987,-1.74739 1.94988,-2.0744 1.94988,-2.39787 2.27486,-3.19905 2.27485,-3.62028 2.27486,-4.02659 2.59984,-5.07602 2.59983,-5.55126 2.92482,-6.76751 3.24979,-8.09879 3.57478,-9.50889 4.22473,-11.87371 5.84963,-17.16052 11.04931,-32.53274 4.54971,-12.60634 3.57477,-9.29345 3.2498,-7.86401 2.92482,-6.52766 2.59983,-5.31792 2.59984,-4.82618 2.27485,-3.796422 2.27486,-3.3812 2.27486,-2.952911 1.94988,-2.182704 1.94987,-1.856674 1.94988,-1.528343 1.6249,-1.022446 1.62489,-0.794853 1.6249,-0.568905 1.6249,-0.345496 1.6249,-0.125507 1.6249,0.09019 1.62489,0.30074 1.6249,0.505315 1.94988,0.866804 1.94987,1.13837 1.94988,1.395181 2.27486,1.93058 2.27486,2.229909 2.59983,2.875879 2.92482,3.594358 3.24979,4.352555 4.22474,6.05152 12.6742,18.45448 3.24979,4.23106 2.92482,3.45406 2.59983,2.72803 2.27486,2.08391 2.27486,1.77023 1.94988,1.24725 1.94987,0.98165 1.94988,0.70219 1.6249,0.36278 1.62489,0.15393 1.6249,-0.0603 1.6249,-0.2791 1.6249,-0.50158 1.6249,-0.72685 1.62489,-0.95405 1.6249,-1.18226 1.94988,-1.72004 1.94987,-2.04726 1.94988,-2.37109 1.94988,-2.68969 2.27486,-3.53117 2.27485,-3.94093 2.59984,-4.98323 2.59984,-5.4648 2.92481,-6.67889 3.2498,-8.012405 3.57477,-9.430102 4.22473,-11.804493 5.52466,-16.146049 2.92481,-8.70388 v 0"
         clip-path="url(#p9b991f9323-9-9)"
         style="mix-blend-mode:normal;fill:none;stroke:#5ddfff;stroke-width:12.8205;stroke-linecap:round;stroke-linejoin:round;stroke-dasharray:none;stroke-dashoffset:0;stroke-opacity:1;paint-order:normal"
         id="path33-9-7"
         transform="matrix(0.156,0,0,0.156,-18.098547,-77.201011)" />
    </g>
  </g>
</svg>
