<?xml version="1.0" encoding="UTF-8" standalone="no"?>
<!-- Created with Inkscape (http://www.inkscape.org/) -->

<svg
   width="21.019245mm"
   height="13.825988mm"
   viewBox="0 0 21.019245 13.825987"
   version="1.1"
   id="svg1"
   inkscape:version="1.3.2 (091e20e, 2023-11-25, custom)"
   sodipodi:docname="hold_down_s.svg"
   xmlns:inkscape="http://www.inkscape.org/namespaces/inkscape"
   xmlns:sodipodi="http://sodipodi.sourceforge.net/DTD/sodipodi-0.dtd"
   xmlns="http://www.w3.org/2000/svg"
   xmlns:svg="http://www.w3.org/2000/svg">
  <sodipodi:namedview
     id="namedview1"
     pagecolor="#ffffff"
     bordercolor="#000000"
     borderopacity="0.25"
     inkscape:showpageshadow="2"
     inkscape:pageopacity="0.0"
     inkscape:pagecheckerboard="0"
     inkscape:deskcolor="#d1d1d1"
     inkscape:document-units="mm"
     inkscape:zoom="2.8044052"
     inkscape:cx="-41.185204"
     inkscape:cy="40.115459"
     inkscape:window-width="1920"
     inkscape:window-height="1001"
     inkscape:window-x="-9"
     inkscape:window-y="-9"
     inkscape:window-maximized="1"
     inkscape:current-layer="layer1" />
  <defs
     id="defs1">
    <clipPath
       id="p9b991f9323-9-9">
      <rect
         x="57.599998"
         y="41.472"
         width="357.12"
         height="266.112"
         id="rect37-2-8" />
    </clipPath>
    <clipPath
       id="p46a843d1e2-1">
      <rect
         x="57.599998"
         y="41.472"
         width="357.12"
         height="266.112"
         id="rect70-4" />
    </clipPath>
    <clipPath
       id="p46a843d1e2-7">
      <rect
         x="57.599998"
         y="41.472"
         width="357.12"
         height="266.112"
         id="rect70-5" />
    </clipPath>
    <clipPath
       id="p46a843d1e2">
      <rect
         x="57.599998"
         y="41.472"
         width="357.12"
         height="266.112"
         id="rect70" />
    </clipPath>
    <clipPath
       id="p46a843d1e2-38">
      <rect
         x="57.599998"
         y="41.472"
         width="357.12"
         height="266.112"
         id="rect70-30" />
    </clipPath>
    <clipPath
       id="p46a843d1e2-38-1">
      <rect
         x="57.599998"
         y="41.472"
         width="357.12"
         height="266.112"
         id="rect70-30-3" />
    </clipPath>
    <clipPath
       id="p46a843d1e2-38-1-9">
      <rect
         x="57.599998"
         y="41.472"
         width="357.12"
         height="266.112"
         id="rect70-30-3-5" />
    </clipPath>
    <clipPath
       id="p46a843d1e2-3">
      <rect
         x="57.599998"
         y="41.472"
         width="357.12"
         height="266.112"
         id="rect70-3" />
    </clipPath>
    <clipPath
       id="p46a843d1e2-38-1-1">
      <rect
         x="57.599998"
         y="41.472"
         width="357.12"
         height="266.112"
         id="rect70-30-3-7" />
    </clipPath>
    <clipPath
       id="p46a843d1e2-38-1-9-9">
      <rect
         x="57.599998"
         y="41.472"
         width="357.12"
         height="266.112"
         id="rect70-30-3-5-2" />
    </clipPath>
    <clipPath
       id="p46a843d1e2-3-4">
      <rect
         x="57.599998"
         y="41.472"
         width="357.12"
         height="266.112"
         id="rect70-3-1" />
    </clipPath>
    <filter
       inkscape:collect="always"
       style="color-interpolation-filters:sRGB"
       id="filter7"
       x="-0.043026992"
       y="-0.056216824"
       width="1.086054"
       height="1.1124336">
      <feGaussianBlur
         inkscape:collect="always"
         stdDeviation="6.3237411"
         id="feGaussianBlur7" />
    </filter>
    <clipPath
       id="p46a843d1e2-3-5">
      <rect
         x="57.599998"
         y="41.472"
         width="357.12"
         height="266.112"
         id="rect70-3-3" />
    </clipPath>
    <clipPath
       id="p46a843d1e2-3-7">
      <rect
         x="57.599998"
         y="41.472"
         width="357.12"
         height="266.112"
         id="rect70-3-4" />
    </clipPath>
    <filter
       inkscape:collect="always"
       style="color-interpolation-filters:sRGB"
       id="filter6"
       x="-0.021455534"
       y="-0.028796005"
       width="1.0429111"
       height="1.057592">
      <feGaussianBlur
         inkscape:collect="always"
         stdDeviation="1.4400111"
         id="feGaussianBlur6" />
    </filter>
  </defs>
  <g
     inkscape:label="Calque 1"
     inkscape:groupmode="layer"
     id="layer1"
     transform="translate(-130.175,-131.23334)">
    <g
       id="group_holddown_blur"
       style="stroke-linecap:butt;stroke-linejoin:round"
       transform="matrix(0.35277777,0,0,0.35277777,51.988154,159.73463)">
      <path
         style="color:#000000;fill:#5ddfff;stroke-width:28.0769;stroke-linecap:round;stroke-linejoin:round;stroke-dasharray:none;filter:url(#filter7)"
         d="m 114.4707,39.544922 -0.97461,0.02148 a 14.039848,14.039848 0 0 0 -2.42773,0.265625 l -0.97461,0.19336 a 14.039848,14.039848 0 0 0 -2.52539,0.755859 l -1.30078,0.525391 a 14.039848,14.039848 0 0 0 -2.29102,1.18164 l -1.30078,0.830078 a 14.039848,14.039848 0 0 0 -1.66406,1.246094 l -1.300783,1.130859 a 14.039848,14.039848 0 0 0 -1.171875,1.148438 l -1.300781,1.431641 a 14.039848,14.039848 0 0 0 -0.908203,1.109375 l -1.625,2.205078 a 14.039848,14.039848 0 0 0 -0.675781,1.005859 l -1.625,2.658203 a 14.039848,14.039848 0 0 0 -0.457031,0.806641 l -1.625,3.099609 a 14.039848,14.039848 0 0 0 -0.345704,0.705078 l -1.949218,4.28711 a 14.039848,14.039848 0 0 0 -0.257813,0.605468 l -1.951172,4.882813 A 14.039848,14.039848 0 0 0 85.625,70.152344 l -2.273438,6.412109 a 14.039848,14.039848 0 0 0 -0.144531,0.429688 l -2.27539,7.134765 a 14.039848,14.039848 0 0 0 -0.109375,0.355469 l -2.59961,8.966797 a 14.039848,14.039848 0 0 0 -0.08398,0.30664 l -2.925781,11.017578 a 14.039848,14.039848 0 0 0 -0.06445,0.25195 l -3.25,13.22852 a 14.039848,14.039848 0 0 0 -0.04883,0.20898 L 67.625,136.87891 a 14.039848,14.039848 0 0 0 -0.03711,0.16796 l -7.47461,34.50977 A 14.038445,14.038445 0 0 0 70.861328,188.24805 14.038445,14.038445 0 0 0 87.552734,177.5 l 7.457032,-34.42578 4.18164,-18.22461 3.191404,-12.99609 2.85157,-10.73633 2.5039,-8.636721 2.14844,-6.740235 2.10742,-5.941406 1.72656,-4.322266 0.70508,-1.550781 1.61133,3.8125 1.76562,4.701172 2.13282,6.335938 2.16797,7.101562 2.51757,8.999997 2.85938,11.08789 3.20117,13.32032 3.86523,17.06445 5.50977,25.44336 8.77344,40.57617 a 14.039848,14.039848 0 0 0 0.0391,0.16797 l 3.89844,17.02148 a 14.039848,14.039848 0 0 0 0.0469,0.19727 l 3.25,13.29687 a 14.039848,14.039848 0 0 0 0.0625,0.2461 l 2.92578,11.09375 a 14.039848,14.039848 0 0 0 0.082,0.29883 l 2.5996,9.04492 a 14.039848,14.039848 0 0 0 0.10352,0.3457 l 2.27539,7.20899 a 14.039848,14.039848 0 0 0 0.13867,0.41796 l 2.27539,6.49219 a 14.039848,14.039848 0 0 0 0.18555,0.49805 l 1.94922,4.95508 a 14.039848,14.039848 0 0 0 0.24609,0.58593 l 1.95117,4.36329 a 14.039848,14.039848 0 0 0 0.32618,0.68359 l 1.625,3.16601 a 14.039848,14.039848 0 0 0 0.43359,0.7793 l 1.625,2.72461 a 14.039848,14.039848 0 0 0 0.63672,0.97461 l 1.625,2.27344 a 14.039848,14.039848 0 0 0 0.84961,1.07422 l 1.30078,1.48828 a 14.039848,14.039848 0 0 0 1.09766,1.12109 l 1.29882,1.1875 a 14.039848,14.039848 0 0 0 1.5625,1.23633 l 1.29883,0.88672 a 14.039848,14.039848 0 0 0 2.16797,1.21289 l 1.30078,0.58398 a 14.039848,14.039848 0 0 0 2.8125,0.91797 l 1.30078,0.27735 a 14.039848,14.039848 0 0 0 2.92969,0.31054 c 67.69104,0 99.43363,0.0117 162.48828,0.0117 a 14.039848,14.039848 0 0 0 0.31055,-0.002 l 0.97461,-0.0215 a 14.039848,14.039848 0 0 0 2.42578,-0.26562 l 0.97656,-0.19531 a 14.039848,14.039848 0 0 0 2.52539,-0.75391 l 1.30078,-0.52539 a 14.039848,14.039848 0 0 0 2.29102,-1.18164 l 1.30078,-0.83008 a 14.039848,14.039848 0 0 0 1.66406,-1.24609 l 1.30078,-1.13282 a 14.039848,14.039848 0 0 0 1.17188,-1.14843 l 1.30078,-1.43164 a 14.039848,14.039848 0 0 0 0.82422,-0.99414 l 1.29883,-1.72852 a 14.039848,14.039848 0 0 0 0.64648,-0.93555 l 1.625,-2.56836 a 14.039848,14.039848 0 0 0 0.49414,-0.84179 l 1.625,-3.01367 a 14.039848,14.039848 0 0 0 0.3418,-0.67579 l 1.625,-3.44531 a 14.039848,14.039848 0 0 0 0.26367,-0.5957 l 1.94922,-4.6875 a 14.039848,14.039848 0 0 0 0.20313,-0.51563 l 1.94921,-5.26562 a 14.039848,14.039848 0 0 0 0.15625,-0.43945 l 2.27344,-6.83204 a 14.039848,14.039848 0 0 0 0.11914,-0.37109 l 2.27539,-7.52344 a 14.039848,14.039848 0 0 0 0.0898,-0.31054 l 2.59961,-9.36914 a 14.039848,14.039848 0 0 0 0.0703,-0.26758 l 2.92578,-11.41211 a 14.039848,14.039848 0 0 0 0.0547,-0.21875 l 3.25,-13.58985 a 14.039848,14.039848 0 0 0 0.0391,-0.17382 l 3.90039,-17.27344 a 14.039848,14.039848 0 0 0 0.0273,-0.12695 l 5.84961,-27.06836 a 14.039848,14.039848 0 0 0 0.008,-0.0312 l 0.65039,-3.04297 a 14.038445,14.038445 0 0 0 -10.79688,-16.66211 14.038445,14.038445 0 0 0 -16.66211,10.79687 l -0.64648,3.02539 -5.83203,26.99024 -3.86524,17.12304 -3.20312,13.39063 -2.86133,11.16797 -2.51953,9.08008 -2.17188,7.18164 -2.14062,6.42578 -1.77149,4.78515 -1.71875,4.12891 -1.32422,2.80859 -1.21289,2.25 -0.93945,1.48438 c -59.30356,-4.5e-4 -92.39384,-0.0131 -155.61719,-0.0137 l -0.24804,-0.34766 -1.09961,-1.83984 -1.24805,-2.4336 -1.66602,-3.72656 -1.73437,-4.41211 -2.11523,-6.0332 -2.1543,-6.82617 -2.50586,-8.72071 -2.85352,-10.82031 -3.19531,-13.07617 -3.85742,-16.83594 -8.75781,-40.49414 a 14.039848,14.039848 0 0 0 0,-0.004 l -5.52539,-25.51172 a 14.039848,14.039848 0 0 0 -0.0273,-0.12891 l -3.90039,-17.21875 a 14.039848,14.039848 0 0 0 -0.041,-0.17969 l -3.25,-13.52343 a 14.039848,14.039848 0 0 0 -0.0566,-0.22657 l -2.92579,-11.337888 a 14.039848,14.039848 0 0 0 -0.0723,-0.27539 l -2.60156,-9.296875 a 14.039848,14.039848 0 0 0 -0.0918,-0.316406 l -2.27539,-7.453125 a 14.039848,14.039848 0 0 0 -0.12305,-0.38086 L 144.33398,73.25 a 14.039848,14.039848 0 0 0 -0.16211,-0.453125 l -1.94921,-5.193359 a 14.039848,14.039848 0 0 0 -0.21289,-0.533204 l -1.94922,-4.611328 A 14.039848,14.039848 0 0 0 139.7832,61.84375 l -1.625,-3.382813 a 14.039848,14.039848 0 0 0 -0.36133,-0.697265 l -1.62304,-2.947266 a 14.039848,14.039848 0 0 0 -0.52344,-0.871094 l -1.625,-2.5 a 14.039848,14.039848 0 0 0 -0.6875,-0.966796 l -1.30078,-1.671875 A 14.039848,14.039848 0 0 0 131.1582,47.78125 l -1.30078,-1.376953 a 14.039848,14.039848 0 0 0 -1.2539,-1.171875 l -1.29883,-1.076172 a 14.039848,14.039848 0 0 0 -1.77539,-1.25 l -1.29883,-0.773438 a 14.039848,14.039848 0 0 0 -2.41602,-1.140625 l -1.30078,-0.46875 a 14.039848,14.039848 0 0 0 -2.61328,-0.666015 l -0.97656,-0.150391 a 14.039848,14.039848 0 0 0 -2.45313,-0.162109 z"
         id="holddown_blur"
         transform="matrix(0.15553215,0,0,0.1304974,214.69244,-83.970573)" />
      <path
         d="m 73.832727,174.528 7.474529,-34.50952 4.224734,-18.41333 3.249795,-13.2277 2.924816,-11.016813 2.599836,-8.967426 2.274857,-7.134463 2.274857,-6.411788 1.949879,-4.882811 1.94988,-4.287468 1.62489,-3.100398 1.6249,-2.657692 1.6249,-2.204474 1.29992,-1.431345 1.29991,-1.132049 1.29992,-0.829887 1.29992,-0.525625 0.97494,-0.193718 0.97494,-0.02153 0.97494,0.150687 1.29991,0.468405 1.29992,0.772976 1.29992,1.075588 1.29992,1.37548 1.29992,1.671889 1.62489,2.50017 1.6249,2.946757 1.6249,3.381691 1.94988,4.613195 1.94987,5.19389 2.27486,6.753843 2.27486,7.451524 2.59983,9.296032 2.92482,11.33952 3.24979,13.52314 3.89976,17.21833 5.52465,25.51122 8.77445,40.57762 3.89975,17.02045 3.2498,13.29785 2.92481,11.09294 2.59984,9.04461 2.27486,7.20871 2.27485,6.4917 1.94988,4.95534 1.94988,4.36329 1.62489,3.16579 1.6249,2.72481 1.6249,2.27306 1.29992,1.48708 1.29992,1.18841 1.29991,0.88672 1.29992,0.5828 1.29992,0.2774 c 67.6929,0 99.43697,0.013 162.48976,0.013 l 0.97494,-0.0215 0.97494,-0.19372 1.29992,-0.52563 1.29992,-0.82988 1.29991,-1.13205 1.29992,-1.43135 1.29992,-1.72701 1.6249,-2.56784 1.6249,-3.01278 1.62489,-3.44582 1.94988,-4.68729 1.94988,-5.26446 2.27485,-6.8312 2.27486,-7.52294 2.59984,-9.36968 2.92481,-11.41132 3.2498,-13.58812 3.89975,-17.27438 5.84963,-27.06826 0.64996,-3.04278 v 0"
         clip-path="url(#p46a843d1e2-3-5)"
         style="fill:none;stroke:#5ddfff;stroke-width:14.0384;stroke-linecap:round;stroke-linejoin:round;stroke-dasharray:none;stroke-opacity:1"
         id="holddown"
         transform="matrix(0.15553215,0,0,0.1304974,214.6926,-83.970602)"
         sodipodi:nodetypes="cccccccccccccccccccccccccccccccccccccccccccccccccccccccccccccccccccccccccccc" />
      <path
         d="m 73.832727,174.528 7.474529,-34.50952 4.224734,-18.41333 3.249795,-13.2277 2.924816,-11.016813 2.599836,-8.967426 2.274857,-7.134463 2.274857,-6.411788 1.949879,-4.882811 1.94988,-4.287468 1.62489,-3.100398 1.6249,-2.657692 1.6249,-2.204474 1.29992,-1.431345 1.29991,-1.132049 1.29992,-0.829887 1.29992,-0.525625 0.97494,-0.193718 0.97494,-0.02153 0.97494,0.150687 1.29991,0.468405 1.29992,0.772976 1.29992,1.075588 1.29992,1.37548 1.29992,1.671889 1.62489,2.50017 1.6249,2.946757 1.6249,3.381691 1.94988,4.613195 1.94987,5.19389 2.27486,6.753843 2.27486,7.451524 2.59983,9.296032 2.92482,11.33952 3.24979,13.52314 3.89976,17.21833 5.52465,25.51122 8.77445,40.57762 3.89975,17.02045 3.2498,13.29785 2.92481,11.09294 2.59984,9.04461 2.27486,7.20871 2.27485,6.4917 1.94988,4.95534 1.94988,4.36329 1.62489,3.16579 1.6249,2.72481 1.6249,2.27306 1.29992,1.48708 1.29992,1.18841 1.29991,0.88672 1.29992,0.5828 1.29992,0.2774 c 67.6929,0 99.43697,0.013 162.48976,0.013 l 0.97494,-0.0215 0.97494,-0.19372 1.29992,-0.52563 1.29992,-0.82988 1.29991,-1.13205 1.29992,-1.43135 1.29992,-1.72701 1.6249,-2.56784 1.6249,-3.01278 1.62489,-3.44582 1.94988,-4.68729 1.94988,-5.26446 2.27485,-6.8312 2.27486,-7.52294 2.59984,-9.36968 2.92481,-11.41132 3.2498,-13.58812 3.89975,-17.27438 5.84963,-27.06826 0.64996,-3.04278 v 0"
         clip-path="url(#p46a843d1e2-3-7)"
         style="fill:none;stroke:#ffffff;stroke-width:7.01922;stroke-linecap:round;stroke-linejoin:round;stroke-dasharray:none;stroke-opacity:1;filter:url(#filter6)"
         id="holddown_white"
         transform="matrix(0.15553215,0,0,0.1304974,214.6926,-83.970602)"
         sodipodi:nodetypes="cccccccccccccccccccccccccccccccccccccccccccccccccccccccccccccccccccccccccccc" />
    </g>
  </g>
</svg>
