<?xml version="1.0" encoding="UTF-8" standalone="no"?>
<!-- Created with Inkscape (http://www.inkscape.org/) -->

<svg
   width="11.877367mm"
   height="9.5018911mm"
   viewBox="0 0 11.877367 9.5018911"
   version="1.1"
   id="svg1"
   xml:space="preserve"
   xmlns:inkscape="http://www.inkscape.org/namespaces/inkscape"
   xmlns:sodipodi="http://sodipodi.sourceforge.net/DTD/sodipodi-0.dtd"
   xmlns="http://www.w3.org/2000/svg"
   xmlns:svg="http://www.w3.org/2000/svg"><sodipodi:namedview
     id="namedview1"
     pagecolor="#ffffff"
     bordercolor="#000000"
     borderopacity="0.25"
     inkscape:showpageshadow="2"
     inkscape:pageopacity="0.0"
     inkscape:pagecheckerboard="0"
     inkscape:deskcolor="#d1d1d1"
     inkscape:document-units="mm"
     inkscape:zoom="3.0933652"
     inkscape:cx="469.06845"
     inkscape:cy="505.11334"
     inkscape:window-width="2560"
     inkscape:window-height="1361"
     inkscape:window-x="1911"
     inkscape:window-y="-9"
     inkscape:window-maximized="1"
     inkscape:current-layer="layer1" /><defs
     id="defs1"><linearGradient
       id="swatch132"
       inkscape:swatch="solid"><stop
         style="stop-color:#72c2d6;stop-opacity:1;"
         offset="0"
         id="stop133" /></linearGradient><linearGradient
       id="linearGradient131"
       inkscape:swatch="gradient"><stop
         style="stop-color:#3293ab;stop-opacity:1;"
         offset="0"
         id="stop131" /><stop
         style="stop-color:#3293ab;stop-opacity:0;"
         offset="1"
         id="stop132" /></linearGradient></defs><g
     inkscape:label="Calque 1"
     inkscape:groupmode="layer"
     id="layer1"
     transform="translate(-101.25247,-168.16069)"><path
       d="m 101.25248,171.13002 v -1.7816 q 0,-0.48994 0.3489,-0.83882 0.34889,-0.34892 0.83882,-0.34892 h 9.50192 q 0.48993,0 0.83883,0.34892 0.34889,0.34888 0.34889,0.83882 v 1.7816 h -1.18772 v -1.7816 h -9.50192 v 1.7816 z m 1.18772,6.53256 q -0.48993,0 -0.83882,-0.34891 -0.3489,-0.34888 -0.3489,-0.83883 v -1.7816 h 1.18772 v 1.7816 h 9.50192 v -1.7816 h 1.18772 v 1.7816 q 0,0.48995 -0.34889,0.83883 -0.3489,0.34891 -0.83883,0.34891 z m 3.56322,-1.7816 q 0.16339,0 0.31178,-0.0817 0.14837,-0.0817 0.22266,-0.24497 l 1.84099,-3.68199 0.65327,1.3065 q 0.0744,0.16341 0.22265,0.24498 0.14836,0.0817 0.31176,0.0817 h 3.56323 v -1.18771 h -3.19205 l -1.02442,-2.04887 q -0.0744,-0.16341 -0.22266,-0.23011 -0.14837,-0.0669 -0.31178,-0.0669 -0.1634,0 -0.31177,0.0669 -0.14836,0.0668 -0.22268,0.23011 l -1.84098,3.68199 -0.65326,-1.3065 q -0.0744,-0.1634 -0.22265,-0.24497 -0.14837,-0.0817 -0.31177,-0.0817 h -3.56321 v 1.18771 h 3.19203 l 1.02444,2.04886 q 0.0744,0.16342 0.22265,0.24497 0.14836,0.0817 0.31177,0.0817 m 1.18773,-2.96935"
       id="path1-3"
       style="fill:#5ddfff;fill-opacity:1;stroke:#5ddfff;stroke-width:0;stroke-dasharray:none;stroke-opacity:1" /></g></svg>
