<?xml version="1.0" encoding="UTF-8" standalone="no"?>
<!-- Created with Inkscape (http://www.inkscape.org/) -->

<svg
   width="11.949432mm"
   height="11.949416mm"
   viewBox="0 0 11.949432 11.949416"
   version="1.1"
   id="svg1"
   xml:space="preserve"
   xmlns:inkscape="http://www.inkscape.org/namespaces/inkscape"
   xmlns:sodipodi="http://sodipodi.sourceforge.net/DTD/sodipodi-0.dtd"
   xmlns="http://www.w3.org/2000/svg"
   xmlns:svg="http://www.w3.org/2000/svg"><sodipodi:namedview
     id="namedview1"
     pagecolor="#ffffff"
     bordercolor="#000000"
     borderopacity="0.25"
     inkscape:showpageshadow="2"
     inkscape:pageopacity="0.0"
     inkscape:pagecheckerboard="0"
     inkscape:deskcolor="#d1d1d1"
     inkscape:document-units="mm"
     inkscape:zoom="3.0933652"
     inkscape:cx="469.06845"
     inkscape:cy="505.11334"
     inkscape:window-width="2560"
     inkscape:window-height="1361"
     inkscape:window-x="1911"
     inkscape:window-y="-9"
     inkscape:window-maximized="1"
     inkscape:current-layer="layer1" /><defs
     id="defs1"><linearGradient
       id="swatch132"
       inkscape:swatch="solid"><stop
         style="stop-color:#72c2d6;stop-opacity:1;"
         offset="0"
         id="stop133" /></linearGradient><linearGradient
       id="linearGradient131"
       inkscape:swatch="gradient"><stop
         style="stop-color:#3293ab;stop-opacity:1;"
         offset="0"
         id="stop131" /><stop
         style="stop-color:#3293ab;stop-opacity:0;"
         offset="1"
         id="stop132" /></linearGradient></defs><g
     inkscape:label="Calque 1"
     inkscape:groupmode="layer"
     id="layer1"
     transform="translate(-172.85572,-166.88766)"><g
       style="fill:#5ddfff;fill-opacity:1;stroke:#5ddfff;stroke-width:0.55408;stroke-dasharray:none;stroke-opacity:1"
       id="g136"
       transform="matrix(0.72191699,0,0,0.72191699,173.05511,167.08704)"><path
         fill-rule="evenodd"
         d="m 7.646,0.146 a 0.5,0.5 0 0 1 0.708,0 l 2,2 A 0.5006316,0.5006316 0 0 1 9.646,2.854 L 8.5,1.707 V 5.5 a 0.5,0.5 0 0 1 -1,0 V 1.707 L 6.354,2.854 A 0.5006316,0.5006316 0 1 1 5.646,2.146 Z M 8,10 a 0.5,0.5 0 0 1 0.5,0.5 v 3.793 l 1.146,-1.147 a 0.5006316,0.5006316 0 0 1 0.708,0.708 l -2,2 a 0.5,0.5 0 0 1 -0.708,0 l -2,-2 A 0.5006316,0.5006316 0 0 1 6.354,13.146 L 7.5,14.293 V 10.5 A 0.5,0.5 0 0 1 8,10 M 0.146,8.354 a 0.5,0.5 0 0 1 0,-0.708 l 2,-2 A 0.5006316,0.5006316 0 1 1 2.854,6.354 L 1.707,7.5 H 5.5 a 0.5,0.5 0 0 1 0,1 H 1.707 L 2.854,9.646 A 0.5006316,0.5006316 0 0 1 2.146,10.354 Z M 10,8 a 0.5,0.5 0 0 1 0.5,-0.5 h 3.793 L 13.146,6.354 a 0.5006316,0.5006316 0 0 1 0.708,-0.708 l 2,2 a 0.5,0.5 0 0 1 0,0.708 l -2,2 A 0.5006316,0.5006316 0 0 1 13.146,9.646 L 14.293,8.5 H 10.5 A 0.5,0.5 0 0 1 10,8"
         id="path1-00"
         style="fill:#5ddfff;fill-opacity:1;stroke:#5ddfff;stroke-width:0.55408;stroke-dasharray:none;stroke-opacity:1" /></g></g></svg>
