<?xml version="1.0" encoding="UTF-8" standalone="no"?>
<!-- Created with Inkscape (http://www.inkscape.org/) -->

<svg
   width="11.976828mm"
   height="14.223987mm"
   viewBox="0 0 11.976828 14.223987"
   version="1.1"
   id="svg1"
   xml:space="preserve"
   xmlns:inkscape="http://www.inkscape.org/namespaces/inkscape"
   xmlns:sodipodi="http://sodipodi.sourceforge.net/DTD/sodipodi-0.dtd"
   xmlns="http://www.w3.org/2000/svg"
   xmlns:svg="http://www.w3.org/2000/svg"><sodipodi:namedview
     id="namedview1"
     pagecolor="#ffffff"
     bordercolor="#000000"
     borderopacity="0.25"
     inkscape:showpageshadow="2"
     inkscape:pageopacity="0.0"
     inkscape:pagecheckerboard="0"
     inkscape:deskcolor="#d1d1d1"
     inkscape:document-units="mm"
     inkscape:zoom="3.0933652"
     inkscape:cx="469.06845"
     inkscape:cy="505.11334"
     inkscape:window-width="2560"
     inkscape:window-height="1361"
     inkscape:window-x="1911"
     inkscape:window-y="-9"
     inkscape:window-maximized="1"
     inkscape:current-layer="layer1" /><defs
     id="defs1"><linearGradient
       id="swatch132"
       inkscape:swatch="solid"><stop
         style="stop-color:#72c2d6;stop-opacity:1;"
         offset="0"
         id="stop133" /></linearGradient><linearGradient
       id="linearGradient131"
       inkscape:swatch="gradient"><stop
         style="stop-color:#3293ab;stop-opacity:1;"
         offset="0"
         id="stop131" /><stop
         style="stop-color:#3293ab;stop-opacity:0;"
         offset="1"
         id="stop132" /></linearGradient><filter
       style="color-interpolation-filters:sRGB"
       inkscape:label="Blur"
       id="filter128"
       x="-0.1662063"
       y="-0.13296547"
       width="1.3324126"
       height="1.2659309"><feGaussianBlur
         stdDeviation="0.31 0.31"
         result="blur"
         id="feGaussianBlur128" /></filter></defs><g
     inkscape:label="Calque 1"
     inkscape:groupmode="layer"
     id="layer1"
     transform="translate(-84.836191,-183.87388)"><path
       d="m 90.234717,194.35669 3.174162,-3.17419 -0.814598,-0.81459 -2.373621,2.37359 -1.179771,-1.17977 -0.800563,0.80056 z m -2.78092,2.24719 q -0.463483,0 -0.793556,-0.33005 -0.330053,-0.33005 -0.330053,-0.79353 v -8.98884 q 0,-0.46348 0.330053,-0.79353 0.330073,-0.33005 0.793556,-0.33005 h 4.494414 l 3.370806,3.3708 v 6.74162 q 0,0.46348 -0.330073,0.79353 -0.330052,0.33005 -0.793536,0.33005 z m 3.932599,-7.3034 v -2.80902 h -3.932599 v 8.98884 h 6.741611 v -6.17982 z m -3.932599,-2.80902 v 2.80902 z m 0,0 v 8.98884 z"
       id="path1-4-1"
       style="fill:#5ddfff;fill-opacity:1;stroke:#5ddfff;stroke-width:1.5;stroke-dasharray:none;stroke-opacity:1;filter:url(#filter128)" /><path
       d="m 90.234717,194.35669 3.174162,-3.17419 -0.814598,-0.81459 -2.373621,2.37359 -1.179771,-1.17977 -0.800563,0.80056 z m -2.78092,2.24719 q -0.463483,0 -0.793556,-0.33005 -0.330053,-0.33005 -0.330053,-0.79353 v -8.98884 q 0,-0.46348 0.330053,-0.79353 0.330073,-0.33005 0.793556,-0.33005 h 4.494414 l 3.370806,3.3708 v 6.74162 q 0,0.46348 -0.330073,0.79353 -0.330052,0.33005 -0.793536,0.33005 z m 3.932599,-7.3034 v -2.80902 h -3.932599 v 8.98884 h 6.741611 v -6.17982 z m -3.932599,-2.80902 v 2.80902 z m 0,0 v 8.98884 z"
       id="path1-4-3"
       style="fill:#ffffff;fill-opacity:1;stroke:#ffffff;stroke-width:1e-05;stroke-dasharray:none;stroke-opacity:1" /></g></svg>
