<?xml version="1.0" encoding="UTF-8" standalone="no"?>
<!-- Created with Inkscape (http://www.inkscape.org/) -->

<svg
   width="10.438607mm"
   height="11.019031mm"
   viewBox="0 0 10.438607 11.019031"
   version="1.1"
   id="svg1"
   xml:space="preserve"
   xmlns:inkscape="http://www.inkscape.org/namespaces/inkscape"
   xmlns:sodipodi="http://sodipodi.sourceforge.net/DTD/sodipodi-0.dtd"
   xmlns="http://www.w3.org/2000/svg"
   xmlns:svg="http://www.w3.org/2000/svg"><sodipodi:namedview
     id="namedview1"
     pagecolor="#ffffff"
     bordercolor="#000000"
     borderopacity="0.25"
     inkscape:showpageshadow="2"
     inkscape:pageopacity="0.0"
     inkscape:pagecheckerboard="0"
     inkscape:deskcolor="#d1d1d1"
     inkscape:document-units="mm"
     inkscape:zoom="3.0933652"
     inkscape:cx="469.06845"
     inkscape:cy="505.11334"
     inkscape:window-width="2560"
     inkscape:window-height="1361"
     inkscape:window-x="1911"
     inkscape:window-y="-9"
     inkscape:window-maximized="1"
     inkscape:current-layer="layer1" /><defs
     id="defs1"><linearGradient
       id="swatch132"
       inkscape:swatch="solid"><stop
         style="stop-color:#72c2d6;stop-opacity:1;"
         offset="0"
         id="stop133" /></linearGradient><linearGradient
       id="linearGradient131"
       inkscape:swatch="gradient"><stop
         style="stop-color:#3293ab;stop-opacity:1;"
         offset="0"
         id="stop131" /><stop
         style="stop-color:#3293ab;stop-opacity:0;"
         offset="1"
         id="stop132" /></linearGradient></defs><g
     inkscape:label="Calque 1"
     inkscape:groupmode="layer"
     id="layer1"
     transform="translate(-133.5293,-167.35287)"><path
       d="m 138.7488,173.1524 q -0.24648,0 -0.41322,-0.1668 -0.16681,-0.1668 -0.16681,-0.4132 v -4.63954 q 0,-0.24648 0.16681,-0.4132 0.1668,-0.1668 0.41322,-0.1668 0.24648,0 0.41319,0.1668 0.16681,0.16681 0.16681,0.4132 v 4.63954 q 0,0.24649 -0.16681,0.4132 -0.1668,0.1668 -0.41319,0.1668 m 0,5.21949 q -1.08741,0 -2.03705,-0.4132 -0.94967,-0.41322 -1.65284,-1.1164 -0.70318,-0.70316 -1.1164,-1.65284 -0.41321,-0.94963 -0.41321,-2.03705 0,-0.88441 0.28997,-1.71808 0.28999,-0.83367 0.84092,-1.5296 0.15959,-0.20297 0.40595,-0.19574 0.24647,0.007 0.43498,0.19574 0.15957,0.15958 0.14488,0.39148 -0.0153,0.23197 -0.15959,0.43496 -0.39147,0.52194 -0.59443,1.14538 -0.20297,0.62344 -0.20297,1.27586 0,1.69635 1.18161,2.87798 1.18164,1.18162 2.87798,1.18162 1.69632,0 2.87796,-1.18162 1.18163,-1.18163 1.18163,-2.87798 0,-0.66692 -0.19573,-1.29761 -0.19574,-0.63069 -0.61618,-1.15262 -0.14488,-0.18851 -0.15957,-0.41322 -0.0153,-0.22472 0.14489,-0.38423 0.17403,-0.17403 0.42045,-0.18126 0.24648,-0.007 0.40597,0.18126 0.56544,0.69593 0.86266,1.52237 0.29723,0.82642 0.29723,1.72531 0,1.08742 -0.41322,2.03705 -0.4132,0.94968 -1.11638,1.65284 -0.70319,0.70318 -1.65284,1.1164 -0.94966,0.4132 -2.03705,0.4132"
       id="path1-6"
       style="fill:#5ddfff;fill-opacity:1;stroke-width:0.0144986" /></g></svg>
