<?xml version="1.0" encoding="UTF-8" standalone="no"?>
<!-- Created with Inkscape (http://www.inkscape.org/) -->

<svg
   width="9.6833477mm"
   height="11.280578mm"
   viewBox="0 0 9.6833477 11.280578"
   version="1.1"
   id="svg1"
   xml:space="preserve"
   xmlns="http://www.w3.org/2000/svg"
   xmlns:svg="http://www.w3.org/2000/svg"><defs
     id="defs1"><linearGradient
       id="swatch132"><stop
         style="stop-color:#72c2d6;stop-opacity:1;"
         offset="0"
         id="stop133" /></linearGradient><linearGradient
       id="linearGradient131"><stop
         style="stop-color:#3293ab;stop-opacity:1;"
         offset="0"
         id="stop131" /><stop
         style="stop-color:#3293ab;stop-opacity:0;"
         offset="1"
         id="stop132" /></linearGradient></defs><g
     id="layer1"
     transform="translate(-70.763376,-166.80947)"><g
       style="fill:#5ddfff;fill-opacity:1;stroke:#5ddfff;stroke-width:0.125217;stroke-dasharray:none;stroke-opacity:1"
       id="g1"
       transform="matrix(0.79861233,0,0,0.79861233,69.216152,166.06086)"><path
         d="m 2.5,15 a 0.5,0.5 0 1 1 0,-1 h 1 V 13 A 4.5,4.5 0 0 1 6.057,8.94 C 6.347,8.801 6.5,8.563 6.5,8.35 V 7.65 C 6.5,7.437 6.346,7.199 6.057,7.06 A 4.5,4.5 0 0 1 3.5,3 V 2 h -1 a 0.5,0.5 0 0 1 0,-1 h 11 a 0.5,0.5 0 0 1 0,1 h -1 V 3 A 4.5,4.5 0 0 1 9.943,7.06 C 9.653,7.199 9.5,7.437 9.5,7.65 v 0.7 c 0,0.213 0.154,0.451 0.443,0.59 A 4.5,4.5 0 0 1 12.5,13 v 1 h 1 a 0.5,0.5 0 0 1 0,1 z m 2,-13 v 1 c 0,0.537 0.12,1.045 0.337,1.5 h 6.326 C 11.379,4.045 11.5,3.537 11.5,3 V 2 Z m 3,6.35 C 7.5,9.051 7.022,9.586 6.489,9.842 A 3.5,3.5 0 0 0 4.5,13 c 0,0 0.866,-1.299 3,-1.48 z m 1,0 v 3.17 c 2.134,0.181 3,1.48 3,1.48 A 3.5,3.5 0 0 0 9.511,9.842 C 8.978,9.586 8.5,9.052 8.5,8.351 Z"
         id="path1"
         style="fill:#5ddfff;fill-opacity:1;stroke:#5ddfff;stroke-width:0.125217;stroke-dasharray:none;stroke-opacity:1" /></g></g></svg>
